<svg width="26" height="24" viewBox="0 0 26 24" fill="none" xmlns="http://www.w3.org/2000/svg">
<g clip-path="url(#clip0_0_1403)">
<path d="M24.375 0H1.625C0.727188 0 0 0.74069 0 1.65517V10.3448C0 11.6441 0.455 12.9021 1.28781 13.891L1.31625 13.9241C1.39344 14.0152 1.50719 14.069 1.625 14.069H24.375C24.4928 14.069 24.6066 14.0152 24.6838 13.9241L24.7122 13.891C25.5409 12.9021 26 11.6483 26 10.3448V1.65517C26 0.74069 25.2728 0 24.375 0ZM21.6856 0.827586L20.8731 2.48276H5.12687L4.31437 0.827586H21.6856ZM24.1841 13.2414H1.81594C1.25531 12.5297 0.914062 11.669 0.832812 10.7586H25.1712C25.09 11.669 24.7488 12.5297 24.1881 13.2414H24.1841ZM25.1875 9.93104H0.8125V1.65517C0.8125 1.2 1.17813 0.827586 1.625 0.827586H3.40438L4.50938 3.08276C4.57844 3.22345 4.72062 3.31034 4.875 3.31034H21.125C21.2794 3.31034 21.4216 3.22345 21.4906 3.08276L22.5956 0.827586H24.375C24.8219 0.827586 25.1875 1.2 25.1875 1.65517V9.93104Z" fill="#187D62"/>
<path d="M2.84375 12.4138H23.1562C23.3797 12.4138 23.5625 12.2276 23.5625 12C23.5625 11.7724 23.3797 11.5862 23.1562 11.5862H2.84375C2.62031 11.5862 2.4375 11.7724 2.4375 12C2.4375 12.2276 2.62031 12.4138 2.84375 12.4138Z" fill="#187D62"/>
<path d="M23.5625 4.13794H18.6875C18.4641 4.13794 18.2812 4.32415 18.2812 4.55173C18.2812 4.77932 18.4641 4.96553 18.6875 4.96553H23.5625C23.7859 4.96553 23.9688 4.77932 23.9688 4.55173C23.9688 4.32415 23.7859 4.13794 23.5625 4.13794Z" fill="#187D62"/>
<path d="M23.5625 5.79309H18.6875C18.4641 5.79309 18.2812 5.9793 18.2812 6.20688C18.2812 6.43447 18.4641 6.62068 18.6875 6.62068H23.5625C23.7859 6.62068 23.9688 6.43447 23.9688 6.20688C23.9688 5.9793 23.7859 5.79309 23.5625 5.79309Z" fill="#187D62"/>
<path d="M2.84375 4.13794C2.16938 4.13794 1.625 4.69242 1.625 5.37932C1.625 6.06622 2.16938 6.6207 2.84375 6.6207C3.51812 6.6207 4.0625 6.06622 4.0625 5.37932C4.0625 4.69242 3.51812 4.13794 2.84375 4.13794ZM2.84375 5.79311C2.62031 5.79311 2.4375 5.6069 2.4375 5.37932C2.4375 5.15173 2.62031 4.96553 2.84375 4.96553C3.06719 4.96553 3.25 5.15173 3.25 5.37932C3.25 5.6069 3.06719 5.79311 2.84375 5.79311Z" fill="#187D62"/>
<path d="M6.09375 4.13794C5.41938 4.13794 4.875 4.69242 4.875 5.37932C4.875 6.06622 5.41938 6.6207 6.09375 6.6207C6.76812 6.6207 7.3125 6.06622 7.3125 5.37932C7.3125 4.69242 6.76812 4.13794 6.09375 4.13794ZM6.09375 5.79311C5.87031 5.79311 5.6875 5.6069 5.6875 5.37932C5.6875 5.15173 5.87031 4.96553 6.09375 4.96553C6.31719 4.96553 6.5 5.15173 6.5 5.37932C6.5 5.6069 6.31719 5.79311 6.09375 5.79311Z" fill="#187D62"/>
<path d="M9.34375 4.13794C8.66938 4.13794 8.125 4.69242 8.125 5.37932C8.125 6.06622 8.66938 6.6207 9.34375 6.6207C10.0181 6.6207 10.5625 6.06622 10.5625 5.37932C10.5625 4.69242 10.0181 4.13794 9.34375 4.13794ZM9.34375 5.79311C9.12031 5.79311 8.9375 5.6069 8.9375 5.37932C8.9375 5.15173 9.12031 4.96553 9.34375 4.96553C9.56719 4.96553 9.75 5.15173 9.75 5.37932C9.75 5.6069 9.56719 5.79311 9.34375 5.79311Z" fill="#187D62"/>
<path d="M13 17.3793C11.2044 17.3793 9.75 18.8607 9.75 20.6896C9.75 22.5186 11.2044 24 13 24C14.7956 24 16.25 22.5186 16.25 20.6896C16.25 18.8607 14.7956 17.3793 13 17.3793ZM13 23.1724C11.6553 23.1724 10.5625 22.0593 10.5625 20.6896C10.5625 19.32 11.6553 18.2069 13 18.2069C14.3447 18.2069 15.4375 19.32 15.4375 20.6896C15.4375 22.0593 14.3447 23.1724 13 23.1724Z" fill="#187D62"/>
<path d="M14.0156 20.2758H11.9844C11.7609 20.2758 11.5781 20.4621 11.5781 20.6896C11.5781 20.9172 11.7609 21.1034 11.9844 21.1034H14.0156C14.2391 21.1034 14.4219 20.9172 14.4219 20.6896C14.4219 20.4621 14.2391 20.2758 14.0156 20.2758Z" fill="#187D62"/>
<path d="M22.3438 15.3103C20.5481 15.3103 19.0938 16.7917 19.0938 18.6207C19.0938 20.4496 20.5481 21.931 22.3438 21.931C24.1394 21.931 25.5938 20.4496 25.5938 18.6207C25.5938 16.7917 24.1394 15.3103 22.3438 15.3103ZM22.3438 21.1034C20.9991 21.1034 19.9062 19.9903 19.9062 18.6207C19.9062 17.251 20.9991 16.1379 22.3438 16.1379C23.6884 16.1379 24.7812 17.251 24.7812 18.6207C24.7812 19.9903 23.6884 21.1034 22.3438 21.1034Z" fill="#187D62"/>
<path d="M23.3594 18.2069H21.3281C21.1047 18.2069 20.9219 18.3931 20.9219 18.6207C20.9219 18.8483 21.1047 19.0345 21.3281 19.0345H23.3594C23.5828 19.0345 23.7656 18.8483 23.7656 18.6207C23.7656 18.3931 23.5828 18.2069 23.3594 18.2069Z" fill="#187D62"/>
<path d="M3.65625 15.3103C1.86063 15.3103 0.40625 16.7917 0.40625 18.6207C0.40625 20.4496 1.86063 21.931 3.65625 21.931C5.45188 21.931 6.90625 20.4496 6.90625 18.6207C6.90625 16.7917 5.45188 15.3103 3.65625 15.3103ZM3.65625 21.1034C2.31156 21.1034 1.21875 19.9903 1.21875 18.6207C1.21875 17.251 2.31156 16.1379 3.65625 16.1379C5.00094 16.1379 6.09375 17.251 6.09375 18.6207C6.09375 19.9903 5.00094 21.1034 3.65625 21.1034Z" fill="#187D62"/>
<path d="M4.67188 18.2069H2.64062C2.41719 18.2069 2.23438 18.3931 2.23438 18.6207C2.23438 18.8483 2.41719 19.0345 2.64062 19.0345H4.67188C4.89531 19.0345 5.07812 18.8483 5.07812 18.6207C5.07812 18.3931 4.89531 18.2069 4.67188 18.2069Z" fill="#187D62"/>
</g>
<defs>
<clipPath id="clip0_0_1403">
<rect width="26" height="24" fill="white"/>
</clipPath>
</defs>
</svg>
