<svg width="25" height="25" viewBox="0 0 25 25" fill="none" xmlns="http://www.w3.org/2000/svg">
<g clip-path="url(#clip0_0_1449)">
<path d="M23.4422 13.8067H17.9873C19.586 12.2845 20.4879 10.1721 20.4817 7.96513C20.4817 7.74903 20.4705 7.53404 20.4526 7.32689C20.1014 3.18392 16.634 0 12.4737 0H12.4339C10.7344 0.00447888 9.08134 0.552582 7.71678 1.56481C4.16032 4.18496 3.40242 9.19067 6.02398 12.7452C6.30462 13.1259 6.61887 13.4809 6.96225 13.8062H1.56117C0.699642 13.8067 0.00112032 14.5043 0 15.3654V15.5859C0.00112032 16.3698 0.583688 17.0309 1.36119 17.1317C1.54829 17.4161 1.99978 18.1708 2.44791 19.4355C3.10834 21.301 3.41474 23.2818 3.54358 24.9994H4.27627C4.27179 24.9435 4.26731 24.883 4.26339 24.8253L4.43648 24.9994H5.06722L6.52364 23.5438L7.98006 24.9994H8.6108L10.0672 23.5438L11.5236 24.9994H12.1544L13.6108 23.5438L15.0672 24.9994H15.698L17.1544 23.5438L18.6108 24.9994H19.2415L20.698 23.5438L20.8481 23.6944C20.7988 24.1104 20.7568 24.5443 20.7237 25H21.4559C21.6446 22.4762 22.1281 20.6281 22.5521 19.4361C23.0002 18.1714 23.4517 17.4167 23.6394 17.1323C24.4169 17.0309 24.9989 16.3698 25 15.5865V15.3659C24.9989 14.506 24.3026 13.809 23.4422 13.8067ZM19.7535 7.96793C19.7603 10.2298 18.7178 12.3673 16.9309 13.7552L16.5909 13.2939C16.5354 13.2194 16.4301 13.2037 16.3556 13.2592C16.2811 13.3146 16.2654 13.4199 16.3209 13.4943L16.5511 13.8067H9.98096C10.4694 11.9446 11.5657 10.2992 13.0966 9.13076L15.0913 11.831C15.1232 11.8741 15.1736 11.8993 15.2269 11.8993C15.3199 11.8993 15.3949 11.8237 15.3944 11.7308C15.3944 11.6949 15.3826 11.6596 15.3613 11.6311L13.3677 8.93145C15.2162 7.63034 17.5 7.10295 19.7322 7.46126C19.7446 7.62922 19.7524 7.79717 19.7535 7.96793ZM17.3992 2.64646C18.6747 3.81489 19.4903 5.40041 19.6992 7.11694C19.2393 7.0492 18.7749 7.01561 18.31 7.01729C16.4671 7.02121 14.6712 7.59562 13.1683 8.6616L10.7422 5.37858C12.9156 3.77346 15.289 2.77131 17.3364 2.59103L17.3992 2.64646ZM12.4378 0.728378H12.4737C14.1099 0.726699 15.6991 1.27704 16.983 2.29095C14.9513 2.54904 12.6512 3.55119 10.5411 5.10984L9.32221 3.45546C10.2778 2.72596 11.0789 1.81395 11.6782 0.772607C11.9303 0.745174 12.1841 0.730618 12.4378 0.728378ZM11.2531 0.830833C10.6929 1.73837 9.97143 2.53673 9.12447 3.1856L8.28647 2.05357C9.17096 1.4282 10.1849 1.00999 11.2531 0.830833ZM8.01647 2.25456L8.85167 3.38547C7.98678 3.9918 7.01882 4.43577 5.99485 4.69555C6.48163 3.74379 7.17175 2.91071 8.01647 2.25456ZM5.1955 8.04015C5.19158 7.02233 5.40164 6.01458 5.81167 5.08297C6.97513 4.82488 8.07641 4.33948 9.05165 3.65421L10.2745 5.31027C8.18228 6.91595 6.56677 8.87099 5.74782 10.7712C5.38875 9.90505 5.2011 8.97736 5.1955 8.04015ZM5.93771 11.1938C6.68777 9.25897 8.32008 7.23507 10.475 5.58069L12.8972 8.86091C11.2805 10.0926 10.13 11.8366 9.63422 13.8073H8.08537C7.17455 13.1164 6.43849 12.2212 5.93771 11.1938ZM2.22384 17.1468H3.66682L4.5149 17.9939L3.18452 19.3225C2.93244 18.5689 2.61091 17.8405 2.22384 17.1468ZM18.3184 17.1468H19.5384L18.9284 17.756L18.3184 17.1468ZM20.4638 19.7647L18.9284 21.2982L17.3941 19.7647L18.9284 18.2318L20.4638 19.7647ZM18.6909 17.9939L17.1566 19.5279L15.6223 17.9939L16.4693 17.1468H17.8434L18.6909 17.9939ZM16.9186 19.7647L15.3843 21.2982L13.85 19.7647L15.3843 18.2318L16.9186 19.7647ZM15.3843 17.756L14.7743 17.1468H15.9943L15.3843 17.756ZM15.1473 17.9939L13.6125 19.5279L12.0782 17.9939L12.9252 17.1468H14.2992L15.1473 17.9939ZM13.3744 19.7647L11.8401 21.2982L10.3058 19.7636L11.8401 18.2307L13.3744 19.7647ZM11.8401 17.756L11.2301 17.1468H12.4501L11.8401 17.756ZM11.6054 17.9928L10.0706 19.5268L8.5363 17.9928L9.38102 17.1468H10.7551L11.6054 17.9928ZM9.83251 19.7636L8.29879 21.2971L6.76395 19.7636L8.29879 18.2307L9.83251 19.7636ZM8.29879 17.7548L7.68429 17.1468H8.90433L8.29879 17.7548ZM8.06128 17.9928L6.52588 19.5268L4.99216 17.9928L5.83576 17.1468H7.20984L8.06128 17.9928ZM4.75633 17.7548L4.14183 17.1468H5.36186L4.75633 17.7548ZM3.38057 19.926C3.35481 19.842 3.32848 19.758 3.30271 19.6785L4.75241 18.2307L6.28389 19.7636L4.75017 21.2971L3.38057 19.926ZM3.56823 20.5894L4.5149 21.535L3.91385 22.1346C3.80966 21.5748 3.69258 21.0603 3.56823 20.5894ZM4.75241 24.8399L4.21745 24.3063C4.1564 23.6754 4.07741 23.0864 3.98611 22.5389L4.75241 21.773L6.28389 23.3053L4.75241 24.8399ZM4.98992 21.5367L6.52364 20.0021L8.05904 21.5361L6.52364 23.0702L4.98992 21.5367ZM8.29487 24.8399L6.76171 23.3053L8.29655 21.7718L9.83027 23.3053L8.29487 24.8399ZM8.53238 21.5367L10.0683 20.0021L11.6032 21.5361L10.0683 23.0702L8.53238 21.5367ZM11.8373 24.8399L10.3058 23.3053L11.8401 21.7718L13.3744 23.3053L11.8373 24.8399ZM12.0754 21.5367L13.6125 20.0021L15.1473 21.5361L13.6125 23.0702L12.0754 21.5367ZM15.3804 24.8399L13.85 23.3053L15.3843 21.7718L16.9186 23.3053L15.3804 24.8399ZM15.6184 21.5367L17.1566 20.0021L18.6909 21.5361L17.1566 23.0702L15.6184 21.5367ZM18.9234 24.8399L17.3941 23.3053L18.9284 21.7718L20.4638 23.3053L18.9234 24.8399ZM20.9708 22.7942L20.6963 23.0696L19.1676 21.535L20.7024 20.001L21.406 20.7053C21.2441 21.3256 21.0979 22.0215 20.9758 22.7936H20.9708V22.7942ZM21.5001 20.3308L20.9332 19.7642L22.072 18.6266C21.853 19.1842 21.6637 19.7524 21.5052 20.3302H21.5001V20.3308ZM20.6963 19.5274L19.1676 17.9928L20.0134 17.1468H21.3881L22.235 17.9939L20.6963 19.5274ZM22.4585 17.7465L21.8631 17.1468H22.7795C22.6854 17.3098 22.579 17.5096 22.4636 17.7459H22.4585V17.7465ZM24.2701 15.5871C24.2696 16.0445 23.8998 16.4162 23.4422 16.419H1.56117C1.10184 16.419 0.72933 16.0467 0.72821 15.5876V15.367C0.72933 14.908 1.10184 14.5362 1.56117 14.5357H23.4422C23.9015 14.5357 24.274 14.908 24.2752 15.367L24.2701 15.5871Z" fill="#187D62"/>
<path d="M1.97065 15.5199C1.86926 15.5182 1.78579 15.5994 1.78411 15.7007C1.78243 15.8021 1.86366 15.8855 1.96505 15.8872C2.06644 15.8888 2.1499 15.8077 2.15158 15.7063C2.15214 15.6576 2.13365 15.6111 2.10004 15.5759C2.06587 15.5406 2.01938 15.5205 1.97065 15.5199Z" fill="#187D62"/>
<path d="M2.798 15.5199C2.69661 15.5188 2.61315 15.5999 2.61203 15.7013C2.61091 15.8026 2.69213 15.886 2.79352 15.8871C2.89491 15.8883 2.97837 15.8071 2.97949 15.7058C2.98005 15.6576 2.96157 15.6106 2.92796 15.5759C2.89379 15.5406 2.84729 15.5204 2.798 15.5199Z" fill="#187D62"/>
<path d="M3.62368 15.5199C3.52229 15.5182 3.43882 15.5994 3.43714 15.7007C3.43546 15.8021 3.51669 15.8855 3.61808 15.8872C3.71947 15.8888 3.80293 15.8077 3.80461 15.7063C3.80517 15.6576 3.78668 15.6111 3.75308 15.5759C3.71891 15.5406 3.67241 15.5205 3.62368 15.5199Z" fill="#187D62"/>
<path d="M15.7506 12.1036C15.6789 12.0325 15.563 12.0325 15.4918 12.1047C15.4207 12.177 15.4207 12.2923 15.4929 12.3634C15.5646 12.4345 15.6795 12.4345 15.7512 12.3634C15.8223 12.2912 15.8223 12.1758 15.7512 12.1036H15.7506Z" fill="#187D62"/>
<path d="M15.9859 12.5946C15.8845 12.5935 15.801 12.6747 15.7999 12.776C15.7988 12.8773 15.88 12.9608 15.9814 12.9619C16.0828 12.963 16.1663 12.8818 16.1674 12.7805C16.1679 12.7323 16.1494 12.6853 16.1158 12.6506C16.0817 12.6153 16.0352 12.5952 15.9859 12.5946Z" fill="#187D62"/>
<path d="M23.1817 15.535H4.45664C4.36365 15.535 4.28859 15.61 4.28859 15.703C4.28859 15.7959 4.36365 15.8709 4.45664 15.8709H23.1817C23.2747 15.8709 23.3498 15.7959 23.3498 15.703C23.3498 15.61 23.2747 15.535 23.1817 15.535Z" fill="#187D62"/>
</g>
<defs>
<clipPath id="clip0_0_1449">
<rect width="25" height="25" fill="white"/>
</clipPath>
</defs>
</svg>
