<svg width="30" height="36" viewBox="0 0 30 36" fill="none" xmlns="http://www.w3.org/2000/svg">
<path fill-rule="evenodd" clip-rule="evenodd" d="M3.63986 33.6351C3.51841 33.6351 3.40174 33.557 3.34511 33.423C2.89344 32.3527 2.51205 31.9144 1.57118 31.3848C1.40879 31.2934 1.34125 31.0664 1.42039 30.8788C1.49954 30.6912 1.69604 30.6132 1.85842 30.7046C2.93165 31.3099 3.41675 31.8672 3.93393 33.0912C4.01307 33.2788 3.94552 33.505 3.78314 33.5972C3.73674 33.6232 3.6883 33.6351 3.63986 33.6351Z" fill="#187D62"/>
<path fill-rule="evenodd" clip-rule="evenodd" d="M11.5175 24.277C11.4042 24.277 11.2944 24.21 11.2337 24.0886C10.8407 23.3067 10.3453 22.7597 9.62756 22.3144C9.4679 22.2151 9.40855 21.9857 9.49383 21.8021C9.5798 21.6176 9.77834 21.5483 9.93731 21.6476C10.7567 22.156 11.3483 22.8109 11.7999 23.7087C11.8907 23.89 11.8375 24.1209 11.6812 24.2257C11.6294 24.2612 11.5727 24.277 11.5175 24.277Z" fill="#187D62"/>
<path fill-rule="evenodd" clip-rule="evenodd" d="M28.6612 3.91189C28.5773 3.91189 28.4934 3.87563 28.4292 3.80154L27.2175 2.40173C27.0892 2.25434 27.0892 2.01473 27.2175 1.86655C27.3458 1.71916 27.5525 1.71916 27.6808 1.86655L28.8925 3.26637C29.0201 3.41376 29.0201 3.65337 28.8925 3.80154C28.8284 3.87563 28.7445 3.91189 28.6612 3.91189Z" fill="#187D62"/>
<path fill-rule="evenodd" clip-rule="evenodd" d="M28.7157 1.34326C28.6584 1.34326 28.6018 1.36769 28.5574 1.41656L0.758486 32.6467C0.655461 32.7626 0.626805 32.9234 0.68207 33.0763C0.917458 33.7321 1.30841 34.1837 1.87607 34.4556C2.00911 34.5194 2.14761 34.4863 2.24791 34.3673L29.282 2.25361C29.368 2.15115 29.3673 1.98642 29.28 1.88553L28.8761 1.41971C28.8324 1.36848 28.7744 1.34326 28.7157 1.34326ZM2.00775 35.243C1.87948 35.243 1.74916 35.2146 1.62499 35.1547C0.899036 34.8063 0.378454 34.205 0.0768851 33.3663C-0.0800401 32.9297 0.0079745 32.4339 0.302039 32.1045L28.101 0.874292C28.4449 0.488082 29.0002 0.492811 29.3393 0.884538L29.7426 1.35035C30.0823 1.74208 30.0858 2.38366 29.7514 2.78091L2.71732 34.8946C2.5256 35.1224 2.26974 35.243 2.00775 35.243Z" fill="#187D62"/>
<path fill-rule="evenodd" clip-rule="evenodd" d="M4.86931 32.1746C4.74855 32.1746 4.63188 32.0973 4.57525 31.9633C4.12972 30.9158 3.75583 30.4863 2.83543 29.9637C2.67304 29.8715 2.60618 29.6453 2.68601 29.4577C2.76583 29.2701 2.96233 29.1929 3.12403 29.2851C4.17679 29.8817 4.65303 30.4295 5.16338 31.6299C5.2432 31.8167 5.17634 32.0437 5.01396 32.1359C4.96756 32.1627 4.91844 32.1746 4.87 32.1746H4.86931Z" fill="#187D62"/>
<path fill-rule="evenodd" clip-rule="evenodd" d="M26.3606 33.6351C26.3121 33.6351 26.2637 33.6232 26.2173 33.5972C26.0549 33.505 25.9874 33.2788 26.0665 33.0912C26.5837 31.8672 27.0681 31.3099 28.142 30.7046C28.3044 30.6132 28.5002 30.6912 28.5794 30.8788C28.6592 31.0664 28.5916 31.2934 28.4286 31.3848C27.4884 31.9144 27.107 32.3527 26.6553 33.423C26.5987 33.557 26.482 33.6351 26.3606 33.6351Z" fill="#187D62"/>
<path fill-rule="evenodd" clip-rule="evenodd" d="M18.4829 24.277C18.427 24.277 18.3703 24.2612 18.3185 24.2257C18.1622 24.1209 18.109 23.89 18.1998 23.7087C18.6508 22.8109 19.243 22.156 20.0624 21.6476C20.2221 21.5483 20.4206 21.6176 20.5059 21.8021C20.5918 21.9857 20.5318 22.2151 20.3722 22.3144C19.6544 22.7597 19.1591 23.3067 18.7661 24.0886C18.7053 24.21 18.5955 24.277 18.4822 24.277H18.4829Z" fill="#187D62"/>
<path fill-rule="evenodd" clip-rule="evenodd" d="M1.33987 3.91189C1.25595 3.91189 1.17203 3.87563 1.10858 3.80154C0.980994 3.65337 0.980311 3.41376 1.10858 3.26637L2.32032 1.86655C2.4479 1.71916 2.65532 1.71916 2.78359 1.86655C2.91186 2.01473 2.91186 2.25434 2.78359 2.40173L1.57185 3.80154C1.50772 3.87563 1.4238 3.91189 1.34056 3.91189H1.33987Z" fill="#187D62"/>
<path fill-rule="evenodd" clip-rule="evenodd" d="M13.4245 18.268C13.3393 18.268 13.254 18.2302 13.1898 18.1537L0.248973 2.78101C-0.0853457 2.38377 -0.081252 1.74219 0.257843 1.35046L0.661072 0.884645C1.00017 0.492918 1.55555 0.488189 1.89942 0.874398L15.2285 15.8491C15.3581 15.9949 15.3609 16.2337 15.2346 16.3835C15.1084 16.534 14.901 16.5372 14.7714 16.3914L1.44297 1.41667C1.35427 1.31736 1.21168 1.31893 1.12434 1.41982L0.721113 1.88564C0.633781 1.98652 0.633099 2.15125 0.719066 2.25372L13.6599 17.6264C13.7862 17.7762 13.7834 18.0158 13.6531 18.1616C13.5897 18.2325 13.5071 18.268 13.4245 18.268ZM27.9927 35.2431C27.7307 35.2431 27.4748 35.1225 27.2831 34.8947L14.7659 20.0257C14.6397 19.8759 14.6424 19.6363 14.7721 19.4905C14.9017 19.3447 15.1091 19.3478 15.2353 19.4976L27.7525 34.3674C27.8528 34.4865 27.992 34.5196 28.1243 34.4557C28.692 34.1838 29.083 33.7322 29.3183 33.0764C29.3736 32.9235 29.3449 32.7627 29.2419 32.6468L16.3475 18.1616C16.2178 18.0158 16.2151 17.7762 16.3406 17.6264C16.4669 17.4767 16.6743 17.4735 16.8039 17.6186L29.6984 32.1046C29.9918 32.4348 30.0805 32.9298 29.9235 33.3664C29.622 34.2051 29.1014 34.8064 28.3754 35.1548C28.2512 35.2147 28.1209 35.2431 27.9927 35.2431Z" fill="#187D62"/>
<path fill-rule="evenodd" clip-rule="evenodd" d="M25.1311 32.1746C25.0826 32.1746 25.0335 32.1627 24.9871 32.1359C24.8247 32.0437 24.7579 31.8167 24.8377 31.6299C25.3481 30.4295 25.8243 29.8817 26.8771 29.2851C27.0394 29.1929 27.2353 29.2701 27.3151 29.4577C27.3949 29.6453 27.328 29.8715 27.1657 29.9637C26.2453 30.4863 25.8707 30.9158 25.4252 31.9633C25.3685 32.0973 25.2519 32.1746 25.1311 32.1746Z" fill="#187D62"/>
<path fill-rule="evenodd" clip-rule="evenodd" d="M15.0006 9.24316C14.2384 9.24316 13.6182 9.95961 13.6182 10.84C13.6182 11.7204 14.2384 12.4369 15.0006 12.4369C15.7627 12.4369 16.3829 11.7204 16.3829 10.84C16.3829 9.95961 15.7627 9.24316 15.0006 9.24316ZM15.0006 13.1943C13.8768 13.1943 12.9633 12.1389 12.9633 10.8408C12.9633 9.54346 13.8768 8.48729 15.0006 8.48729C16.1243 8.48729 17.0379 9.54346 17.0379 10.8408C17.0379 12.1382 16.1243 13.1943 15.0006 13.1943Z" fill="#187D62"/>
<path fill-rule="evenodd" clip-rule="evenodd" d="M15.0006 5.29279C14.2384 5.29279 13.6182 6.00925 13.6182 6.88965C13.6182 7.77083 14.2384 8.48651 15.0006 8.48651C15.7627 8.48651 16.3829 7.77083 16.3829 6.88965C16.3829 6.00925 15.7627 5.29279 15.0006 5.29279ZM15.0006 9.24316C13.8768 9.24316 12.9633 8.18778 12.9633 6.88965C12.9633 5.5923 13.8768 4.53613 15.0006 4.53613C16.1243 4.53613 17.0379 5.5923 17.0379 6.88965C17.0379 8.187 16.1243 9.24316 15.0006 9.24316Z" fill="#187D62"/>
<path fill-rule="evenodd" clip-rule="evenodd" d="M18.4201 5.29279C17.658 5.29279 17.0378 6.00925 17.0378 6.88965C17.0378 7.77005 17.658 8.48651 18.4201 8.48651C19.1823 8.48651 19.8024 7.77083 19.8024 6.88965C19.8024 6.00846 19.1823 5.29279 18.4201 5.29279ZM18.4201 9.24316C17.2964 9.24316 16.3828 8.18778 16.3828 6.88965C16.3828 5.5923 17.2971 4.53613 18.4201 4.53613C19.5432 4.53613 20.4574 5.5923 20.4574 6.88965C20.4574 8.187 19.5439 9.24316 18.4201 9.24316Z" fill="#187D62"/>
<path fill-rule="evenodd" clip-rule="evenodd" d="M11.5809 5.29279C10.8188 5.29279 10.1986 6.00925 10.1986 6.88965C10.1986 7.77083 10.8188 8.48651 11.5809 8.48651C12.343 8.48651 12.9632 7.77083 12.9632 6.88965C12.9632 6.00846 12.343 5.29279 11.5809 5.29279ZM11.5809 9.24316C10.4579 9.24316 9.54364 8.18778 9.54364 6.88965C9.54364 5.59151 10.4579 4.53613 11.5809 4.53613C12.704 4.53613 13.6182 5.5923 13.6182 6.88965C13.6182 8.18778 12.7047 9.24316 11.5809 9.24316Z" fill="#187D62"/>
<path fill-rule="evenodd" clip-rule="evenodd" d="M13.2907 1.3432C12.5286 1.3432 11.9084 2.05966 11.9084 2.94006C11.9084 3.82046 12.5286 4.53613 13.2907 4.53613C14.0529 4.53613 14.6731 3.82046 14.6731 2.94006C14.6731 2.05966 14.0529 1.3432 13.2907 1.3432ZM13.2907 5.29279C12.1677 5.29279 11.2534 4.23741 11.2534 2.94006C11.2534 1.64192 12.167 0.586548 13.2907 0.586548C14.4145 0.586548 15.328 1.64192 15.328 2.94006C15.328 4.23741 14.4145 5.29279 13.2907 5.29279Z" fill="#187D62"/>
<path fill-rule="evenodd" clip-rule="evenodd" d="M16.7104 1.3432C15.9483 1.3432 15.3281 2.05966 15.3281 2.94006C15.3281 3.82046 15.9483 4.53613 16.7104 4.53613C17.4725 4.53613 18.0927 3.82046 18.0927 2.94006C18.0927 2.05966 17.4725 1.3432 16.7104 1.3432ZM16.7104 5.29279C15.5873 5.29279 14.6731 4.23741 14.6731 2.94006C14.6731 1.64271 15.5866 0.586548 16.7104 0.586548C17.8341 0.586548 18.7477 1.64192 18.7477 2.94006C18.7477 4.23741 17.8341 5.29279 16.7104 5.29279Z" fill="#187D62"/>
<path fill-rule="evenodd" clip-rule="evenodd" d="M9.87113 1.3432C9.10902 1.3432 8.48882 2.05966 8.48882 2.94006C8.48882 3.82046 9.10902 4.53613 9.87113 4.53613C10.6332 4.53613 11.2534 3.82046 11.2534 2.94006C11.2534 2.05966 10.6332 1.3432 9.87113 1.3432ZM9.87113 5.29279C8.74741 5.29279 7.83383 4.23741 7.83383 2.94006C7.83383 1.64192 8.74741 0.586548 9.87113 0.586548C10.9949 0.586548 11.9084 1.64192 11.9084 2.94006C11.9084 4.2382 10.9949 5.29279 9.87113 5.29279Z" fill="#187D62"/>
<path fill-rule="evenodd" clip-rule="evenodd" d="M20.1299 1.3432C19.3678 1.3432 18.7476 2.05966 18.7476 2.94006C18.7476 3.82046 19.3678 4.53613 20.1299 4.53613C20.8921 4.53613 21.5123 3.82046 21.5123 2.94006C21.5123 2.05966 20.8921 1.3432 20.1299 1.3432ZM20.1299 5.29279C19.0062 5.29279 18.0927 4.23741 18.0927 2.94006C18.0927 1.64192 19.0062 0.586548 20.1299 0.586548C21.2537 0.586548 22.1672 1.64192 22.1672 2.94006C22.1672 4.2382 21.253 5.29279 20.1299 5.29279Z" fill="#187D62"/>
</svg>
