<svg width="26" height="28" viewBox="0 0 26 28" fill="none" xmlns="http://www.w3.org/2000/svg">
<g clip-path="url(#clip0_0_1290)">
<path d="M23.3048 2.48662H22.5037V4.14394C22.5037 4.90363 21.8738 5.5219 21.0994 5.5219C20.3251 5.5219 19.6953 4.90363 19.6953 4.14394V2.48662H17.1043V4.14394C17.1043 4.90363 16.4743 5.5219 15.7001 5.5219C14.9259 5.5219 14.2958 4.90363 14.2958 4.14394V2.48662H11.7048V4.14394C11.7048 4.90363 11.0749 5.5219 10.3006 5.5219C9.52623 5.5219 8.89633 4.90363 8.89633 4.14394V2.48662H6.30532V4.14394C6.30532 4.90363 5.67542 5.5219 4.90123 5.5219C4.12705 5.5219 3.49699 4.90363 3.49699 4.14394V2.48662H2.69586C1.209 2.48662 0 3.67299 0 5.13138V25.3554C0 26.8138 1.209 28.0002 2.69521 28.0002H23.305C24.7912 28.0002 26.0002 26.8138 26.0002 25.3554V5.13138C26.0002 3.67299 24.7912 2.48662 23.305 2.48662H23.3048ZM24.1898 25.3552H1.81017C1.51023 25.3552 1.2671 25.1167 1.2671 24.8223V9.35383C1.2671 9.05951 1.51023 8.82093 1.81017 8.82093H24.1898C24.4898 8.82093 24.7329 9.05951 24.7329 9.35383V24.8223C24.7329 25.1167 24.4898 25.3552 24.1898 25.3552Z" fill="white"/>
<path d="M5.7457 0.829455C5.7457 0.37136 5.36729 0 4.90051 0C4.43372 0 4.05531 0.37136 4.05531 0.829455V4.14377C4.05531 4.60187 4.43372 4.97323 4.90051 4.97323C5.36729 4.97323 5.7457 4.60187 5.7457 4.14377V0.829455Z" fill="white"/>
<path d="M11.1454 0.829455C11.1454 0.37136 10.767 0 10.3002 0C9.83338 0 9.45497 0.37136 9.45497 0.829455V4.14377C9.45497 4.60187 9.83338 4.97323 10.3002 4.97323C10.767 4.97323 11.1454 4.60187 11.1454 4.14377V0.829455Z" fill="white"/>
<path d="M16.545 0.829455C16.545 0.37136 16.1666 0 15.6998 0C15.2331 0 14.8546 0.37136 14.8546 0.829455V4.14377C14.8546 4.60187 15.2331 4.97323 15.6998 4.97323C16.1666 4.97323 16.545 4.60187 16.545 4.14377V0.829455Z" fill="white"/>
<path d="M21.9445 0.829455C21.9445 0.37136 21.5661 0 21.0993 0C20.6326 0 20.2542 0.37136 20.2542 0.829455V4.14377C20.2542 4.60187 20.6326 4.97323 21.0993 4.97323C21.5661 4.97323 21.9445 4.60187 21.9445 4.14377V0.829455Z" fill="white"/>
<path d="M18.9668 11.8038C18.9668 11.9159 18.9247 12.0263 18.8447 12.1121C16.1526 15.0038 13.9566 18.3383 12.3717 21.9328C12.1744 22.3805 11.7663 22.7043 11.2786 22.7986C11.2723 22.7997 11.2661 22.8009 11.26 22.8021C10.6291 22.9248 9.98912 22.6364 9.66841 22.0892C8.93415 20.8362 8.09958 19.6395 7.1751 18.5143C6.95697 18.249 6.99414 17.861 7.25983 17.6414C7.26534 17.6369 7.2707 17.6325 7.27622 17.6278C7.90238 17.1117 8.84277 17.2227 9.32205 17.8728C9.90504 18.6635 10.4617 19.4732 10.9904 20.2998C12.7674 17.1601 15.3185 13.9972 18.1898 11.4633C18.4269 11.254 18.8036 11.3362 18.9291 11.6238C18.9544 11.6818 18.9668 11.743 18.9668 11.8038Z" fill="white"/>
</g>
<defs>
<clipPath id="clip0_0_1290">
<rect width="26" height="28" fill="white"/>
</clipPath>
</defs>
</svg>
