<svg width="28" height="20" viewBox="0 0 28 20" fill="none" xmlns="http://www.w3.org/2000/svg">
<g clip-path="url(#clip0_0_1418)">
<path d="M21.4665 0H6.53352C2.92688 0.00372866 0.00382813 2.85083 0 6.36376V13.6362C0.00382813 17.1492 2.92688 19.9963 6.53352 20H21.467C25.0737 19.9963 27.9967 17.1492 28.0005 13.6362V6.36376C27.9962 2.85083 25.0731 0.00372866 21.4665 0ZM27.0665 13.6362C27.0632 16.6474 24.558 19.0875 21.4665 19.0907H6.53352C3.44203 19.0875 0.936797 16.6474 0.933516 13.6362V6.36376C0.936797 3.3526 3.44203 0.912456 6.53352 0.90926H21.467C24.5585 0.912456 27.0637 3.3526 27.067 6.36376V13.6362H27.0665Z" fill="#187D62"/>
<path d="M21.4665 1.81799H6.53352C3.95719 1.82066 1.86977 3.85437 1.86703 6.36323V13.6357C1.86977 16.1451 3.95774 18.1783 6.53352 18.181H21.467C24.0434 18.1783 26.1308 16.1446 26.1335 13.6357V6.36376C26.1308 3.85437 24.0428 1.82119 21.467 1.81853L21.4665 1.81799ZM25.2 13.6362C25.1978 15.6439 23.5277 17.2701 21.4665 17.2728H6.53352C4.47235 17.2706 2.80274 15.6439 2.8 13.6362V6.36376C2.80219 4.35615 4.47235 2.72992 6.53352 2.72725H21.467C23.5282 2.72938 25.1978 4.35615 25.2005 6.36376V13.6362H25.2Z" fill="#187D62"/>
<path d="M5.13351 6.36375C5.43374 6.36482 5.71866 6.49 5.91773 6.70892C6.68226 7.45785 7.92585 7.46158 8.69476 6.71691C8.69749 6.71425 8.70023 6.71159 8.70296 6.70892C9.08577 6.28652 9.74749 6.24604 10.1812 6.61837C10.214 6.6466 10.2451 6.67696 10.2741 6.70892C10.6416 7.07167 11.1437 7.27515 11.667 7.27301C11.9246 7.27301 12.1335 7.06954 12.1335 6.81865C12.1335 6.56777 11.9246 6.36429 11.667 6.36429C11.3668 6.36322 11.0808 6.23751 10.8817 6.01859C10.1155 5.26913 8.8714 5.267 8.10194 6.01273C8.09976 6.01486 8.09812 6.01646 8.09593 6.01859C7.71366 6.44099 7.05194 6.48147 6.61827 6.10914C6.58546 6.08091 6.55429 6.05055 6.5253 6.01859C6.1578 5.65584 5.65632 5.4529 5.13351 5.45503C4.87593 5.45503 4.66702 5.65851 4.66702 5.90939C4.66702 6.16028 4.87593 6.36375 5.13351 6.36375Z" fill="#187D62"/>
<path d="M22.4 6.36374C22.0998 6.36268 21.8137 6.23697 21.6141 6.01805C20.8485 5.26912 19.6049 5.26592 18.8355 6.01165C18.8333 6.01378 18.8311 6.01591 18.8289 6.01805C18.4466 6.44045 17.7849 6.48093 17.3512 6.1086C17.3184 6.08037 17.2873 6.05001 17.2583 6.01805C16.8913 5.6553 16.3893 5.45182 15.8665 5.45448C15.6089 5.45448 15.4 5.65796 15.4 5.90885C15.4 6.15973 15.6089 6.36321 15.8665 6.36321C16.1667 6.36428 16.4516 6.48945 16.6507 6.70838C17.4158 7.45731 18.6588 7.4605 19.4277 6.71584C19.4305 6.71317 19.4327 6.71104 19.4354 6.70838C19.8182 6.28544 20.481 6.24549 20.9147 6.61836C20.9475 6.64659 20.9781 6.67642 21.0071 6.70838C21.3746 7.07113 21.8766 7.2746 22.3994 7.27247C22.657 7.27247 22.8659 7.06899 22.8659 6.81811C22.8659 6.56722 22.657 6.36374 22.3994 6.36374H22.4Z" fill="#187D62"/>
<path d="M11.6665 14.0906C11.3662 14.0895 11.0802 13.9638 10.8812 13.7449C10.115 12.9954 8.87085 12.9933 8.1014 13.739C8.09921 13.7412 8.09757 13.7428 8.09538 13.7449C7.71311 14.1673 7.0514 14.2078 6.61772 13.8355C6.58491 13.8072 6.55374 13.7769 6.52475 13.7449C6.15725 13.3822 5.65577 13.1792 5.13296 13.1813C4.87538 13.1813 4.66647 13.3848 4.66647 13.6357C4.66647 13.8866 4.87538 14.0901 5.13296 14.0901C5.43319 14.0911 5.71811 14.2163 5.91718 14.4352C6.68171 15.1842 7.9253 15.1879 8.69421 14.4432C8.69694 14.4406 8.69968 14.4379 8.70241 14.4352C9.08522 14.0128 9.74694 13.9724 10.1806 14.3447C10.2134 14.3729 10.2446 14.4033 10.2736 14.4352C10.6411 14.798 11.1431 15.0015 11.6665 14.9993C11.9241 14.9993 12.133 14.7959 12.133 14.545C12.133 14.2941 11.9241 14.0906 11.6665 14.0906Z" fill="#187D62"/>
<path d="M22.4 14.0906C22.0998 14.0895 21.8137 13.9638 21.6141 13.7449C20.8485 12.996 19.6049 12.9928 18.8355 13.7385C18.8333 13.7407 18.8311 13.7428 18.8289 13.7449C18.4466 14.1673 17.7849 14.2078 17.3512 13.8355C17.3184 13.8072 17.2873 13.7769 17.2583 13.7449C16.8913 13.3822 16.3893 13.1787 15.8665 13.1814C15.6089 13.1814 15.4 13.3848 15.4 13.6357C15.4 13.8866 15.6089 14.0901 15.8665 14.0901C16.1667 14.0911 16.4516 14.2163 16.6507 14.4352C17.4158 15.1842 18.6588 15.1874 19.4277 14.4427C19.4305 14.44 19.4327 14.4379 19.4354 14.4352C19.8182 14.0123 20.481 13.9724 20.9147 14.3452C20.9475 14.3735 20.9781 14.4033 21.0071 14.4352C21.3746 14.798 21.8766 15.0015 22.3994 14.9993C22.657 14.9993 22.8659 14.7959 22.8659 14.545C22.8659 14.2941 22.657 14.0906 22.3994 14.0906H22.4Z" fill="#187D62"/>
<path d="M17.2665 11.3634C17.5241 11.3634 17.733 11.1599 17.733 10.909C17.733 10.6581 17.5241 10.4546 17.2665 10.4546C16.9662 10.4536 16.6802 10.3279 16.4806 10.1089C15.715 9.36 14.4714 9.3568 13.7019 10.1025C13.6998 10.1047 13.6976 10.1068 13.6954 10.1089C13.3131 10.5313 12.6514 10.5718 12.2177 10.1995C12.1849 10.1712 12.1537 10.1409 12.1248 10.1089C11.7573 9.74618 11.2558 9.54324 10.733 9.54537C10.4754 9.54537 10.2665 9.74884 10.2665 9.99973C10.2665 10.2506 10.4754 10.4541 10.733 10.4541C11.0332 10.4552 11.3181 10.5803 11.5172 10.7993C12.2817 11.5482 13.5253 11.5519 14.2942 10.8073C14.2969 10.8046 14.2997 10.8019 14.3024 10.7993C14.6858 10.3769 15.348 10.3364 15.7817 10.7098C15.814 10.7375 15.8446 10.7678 15.8736 10.7993C16.2411 11.162 16.7431 11.3655 17.2659 11.3634H17.2665Z" fill="#187D62"/>
</g>
<defs>
<clipPath id="clip0_0_1418">
<rect width="28" height="20" fill="white"/>
</clipPath>
</defs>
</svg>
