<svg width="29" height="29" viewBox="0 0 29 29" fill="none" xmlns="http://www.w3.org/2000/svg">
<path d="M26.6607 0.819702H20.1125C18.8216 0.821382 17.7756 1.82329 17.7738 3.05986V9.3323C17.7756 10.5689 18.8216 11.5708 20.1125 11.5725H21.9834V16.7629L21.8285 16.6145C20.5767 15.416 19.2238 14.3189 17.7838 13.3332C16.9629 12.7693 15.9772 12.4668 14.9669 12.4685H6.54825C4.94101 12.4708 3.48285 13.3702 2.81633 14.7703C1.88204 16.7315 1.40027 18.8625 1.4032 21.0181V21.9332C0.57765 22.1387 0.00116933 22.8516 0 23.6687C0.00233866 24.6628 0.73434 25.5186 1.75166 25.7157L1.88613 25.7414C2.04574 27.4652 3.6337 28.7382 5.4333 28.5853C6.94583 28.4571 8.16661 27.3482 8.38235 25.9089H20.6182C20.8749 27.6215 22.5324 28.811 24.3209 28.5652C25.7855 28.3636 26.9268 27.2452 27.1033 25.8378C27.7079 25.6972 28.2353 25.3455 28.5831 24.8521C28.8556 24.4623 29.0006 24.0036 29 23.5343C28.9965 21.0326 27.2887 18.8255 24.7904 18.0947V11.5719H26.6613C27.9523 11.5702 28.9982 10.5683 29 9.33174V3.05986C28.9982 1.82329 27.9523 0.821382 26.6613 0.819702H26.6607ZM3.66761 15.1416C4.1827 14.0607 5.30818 13.3663 6.54825 13.3646H14.9674C15.783 13.3635 16.5782 13.6076 17.2406 14.0624C18.6391 15.0189 19.9535 16.0847 21.1696 17.2479L21.7899 17.8449H20.6545C19.5085 16.764 18.2761 15.7711 16.9688 14.875C16.3853 14.4746 15.6854 14.2595 14.9674 14.2606H6.54825C5.49118 14.2623 4.53233 14.8543 4.09324 15.775C3.93305 16.1121 3.79156 16.4582 3.66118 16.8055L3.03617 16.7203C3.21391 16.1827 3.42497 15.6551 3.66761 15.1416ZM20.2528 18.7645C20.62 19.8202 20.6808 20.9514 20.4288 22.0379L19.7383 25.0134H12.0581L11.4384 22.6388C11.1543 21.5507 11.1543 20.4116 11.4384 19.3234L11.5904 18.741H20.2435L20.2528 18.7645ZM5.46019 22.3403L4.53993 20.2839C4.24292 19.6191 3.56061 19.1884 2.80581 19.189H2.46553C2.53803 18.6502 2.64269 18.1165 2.78008 17.5895L10.6462 18.6648L10.5316 19.1055C10.21 20.3359 10.21 21.6235 10.5316 22.8539L11.0946 25.0134H8.38177C8.16544 23.5853 6.95986 22.482 5.46019 22.3403ZM11.6933 17.8449V15.1567H14.9674C15.4907 15.1561 16.0005 15.3124 16.4256 15.6047C17.4318 16.2936 18.3918 17.0418 19.301 17.8449H11.6933ZM10.7578 15.1567V17.7766L4.606 16.9348C4.71065 16.6694 4.82174 16.405 4.94452 16.1463C5.23159 15.5448 5.85776 15.1584 6.54825 15.1573H10.7578V15.1567ZM0.935465 23.6693C0.935465 23.1742 1.35409 22.7732 1.87093 22.7732C2.12935 22.7732 2.33866 22.5727 2.33866 22.3252V21.0181C2.33866 20.7045 2.35269 20.3942 2.37374 20.0851H2.80639C3.18701 20.0851 3.5308 20.3018 3.68047 20.6372L4.46626 22.3941C3.1911 22.6551 2.19834 23.6144 1.93641 24.8381C1.35525 24.7261 0.936634 24.2377 0.935465 23.6699V23.6693ZM5.14506 27.7016C3.85353 27.7016 2.80639 26.6986 2.80639 25.4614C2.80639 24.2243 3.85353 23.2213 5.14506 23.2213C6.43658 23.2213 7.48372 24.2243 7.48372 25.4614C7.48197 26.698 6.436 27.6999 5.14506 27.7016ZM23.8544 27.7016C22.5628 27.7016 21.5157 26.6986 21.5157 25.4614C21.5157 24.2243 22.5628 23.2213 23.8544 23.2213C25.1459 23.2213 26.193 24.2243 26.193 25.4614C26.1913 26.698 25.1453 27.6999 23.8544 27.7016ZM27.8044 24.3542C27.6254 24.6051 27.3705 24.7978 27.0735 24.9047C26.7543 23.2028 25.0547 22.0709 23.2779 22.3773C22.2436 22.5554 21.3613 23.1994 20.9076 24.1073L21.342 22.2322C21.6116 21.0774 21.5683 19.8756 21.2169 18.741H23.0586C24.0029 18.741 24.9278 18.9986 25.7247 19.4841V20.9811C25.7247 21.9707 26.5625 22.7732 27.5956 22.7732H27.9944C28.0388 23.0247 28.0616 23.2795 28.0634 23.5349C28.0634 23.8267 27.9733 24.1117 27.8038 24.3542H27.8044ZM27.7494 21.8772H27.5962C27.0794 21.8772 26.6607 21.4762 26.6607 20.9811V20.2139C27.1396 20.6905 27.5103 21.2572 27.7494 21.8772ZM23.8544 17.9009C23.6088 17.8673 23.3609 17.8488 23.113 17.8449L22.9189 17.659V11.5725H23.8544V17.9009ZM28.0639 9.3323C28.0639 10.0744 27.4354 10.6764 26.6607 10.6764H20.1125C19.3378 10.6764 18.7093 10.0744 18.7093 9.3323V3.05986C18.7093 2.31781 19.3378 1.71576 20.1125 1.71576H26.6607C27.4354 1.71576 28.0639 2.31781 28.0639 3.05986V9.3323Z" fill="#168366"/>
<path d="M24.322 2.61194H21.5156C21.2571 2.61194 21.0478 2.81243 21.0478 3.05997V9.78044H21.9833V7.09225H24.322C25.6135 7.09225 26.6606 6.08922 26.6606 4.8521C26.6606 3.61497 25.6135 2.61194 24.322 2.61194ZM24.322 6.19619H21.9833V3.508H24.322C25.0966 3.508 25.7252 4.11004 25.7252 4.8521C25.7252 5.59415 25.0966 6.19619 24.322 6.19619Z" fill="#168366"/>
</svg>
