<svg width="19" height="19" viewBox="0 0 19 19" fill="none" xmlns="http://www.w3.org/2000/svg">
<g clip-path="url(#clip0_0_1500)">
<path d="M18.2603 12.1062C18.2308 12.2014 18.2018 12.2961 18.1689 12.3913C18.1103 12.5812 18.0408 12.7677 17.9642 12.9505C17.9275 13.0418 17.8875 13.1294 17.8471 13.2208C17.8066 13.3122 17.7666 13.3998 17.7228 13.4878C17.6571 13.6301 17.5838 13.769 17.5071 13.908C17.4595 13.996 17.4086 14.0836 17.3572 14.1712C17.251 14.3501 17.1377 14.5291 17.0134 14.7009C16.724 15.1215 16.3988 15.5165 16.0412 15.8811C15.9755 15.9468 15.9098 16.0125 15.8403 16.0782H13.1574L11.3297 12.7896L13.1574 9.50105H16.8129L18.2603 12.1062Z" fill="white"/>
<path d="M15.8403 16.0782C15.7089 16.2062 15.5736 16.3304 15.4346 16.4475C15.4271 16.455 15.4237 16.4622 15.4161 16.4656C15.2918 16.5717 15.1676 16.674 15.0361 16.7687C15.0062 16.7944 14.9746 16.8176 14.9409 16.8382C14.8095 16.9405 14.6743 17.0357 14.5353 17.1271C14.5155 17.1405 14.4944 17.1528 14.4729 17.1637C14.366 17.2391 14.2547 17.309 14.1402 17.3721C14.0488 17.4307 13.9536 17.4816 13.8588 17.533C13.7274 17.6025 13.5955 17.6719 13.4641 17.7338C13.3546 17.7886 13.2484 17.8362 13.1351 17.8871C12.967 17.96 12.7952 18.0261 12.6233 18.088C12.5319 18.1246 12.4367 18.1536 12.3419 18.1831C12.2105 18.2269 12.0786 18.2673 11.9434 18.3035C11.9354 18.3082 11.927 18.3107 11.9177 18.3107L13.157 16.0782H15.8399H15.8403Z" fill="#187D62"/>
<path d="M7.08566 18.3107C7.07682 18.3107 7.06797 18.3082 7.05997 18.3035C6.92475 18.2669 6.7929 18.2269 6.66148 18.1831C6.5667 18.1536 6.4715 18.1246 6.38009 18.088C6.20822 18.0256 6.03636 17.96 5.86828 17.8871C5.75497 17.8362 5.64882 17.7886 5.53929 17.7338C5.40787 17.6715 5.27602 17.6025 5.14459 17.533C5.04939 17.482 4.95419 17.4307 4.8632 17.3721C4.74863 17.309 4.63742 17.2391 4.53043 17.1637C4.50894 17.1532 4.4883 17.141 4.4685 17.1271C4.32949 17.0357 4.19428 16.9405 4.06285 16.8382C4.02957 16.8176 3.99756 16.7944 3.96765 16.7687C3.83622 16.674 3.71196 16.5717 3.58769 16.4656C3.58011 16.4618 3.57674 16.4546 3.56958 16.4475C3.43057 16.3304 3.29535 16.2062 3.16393 16.0782H5.8468L7.08608 18.3107H7.08566Z" fill="#187D62"/>
<path d="M7.67455 12.7896L5.8468 16.0782H3.16392C3.09442 16.0125 3.0287 15.9468 2.96299 15.8811C2.60536 15.5165 2.28016 15.1215 1.99077 14.7009C1.86651 14.5291 1.75319 14.3501 1.64704 14.1712C1.59607 14.0836 1.54468 13.996 1.49708 13.908C1.42041 13.769 1.34754 13.6305 1.2814 13.4878C1.2376 13.3998 1.19716 13.3122 1.15714 13.2208C1.11712 13.1294 1.07668 13.0418 1.04046 12.9505C0.963789 12.7677 0.894285 12.5812 0.835733 12.3913C0.802876 12.2961 0.77381 12.2014 0.744324 12.1062L2.1917 9.50105H5.84722L7.67498 12.7896H7.67455Z" fill="white"/>
<path d="M2.19129 9.50106L0.743909 12.1062C0.237158 10.4064 0.237158 8.59575 0.743909 6.89589L2.19129 9.50106Z" fill="#187D62"/>
<path d="M7.67456 6.21249L5.84681 9.50105H2.19129L0.743912 6.89589C1.19127 5.38424 2.02532 4.01534 3.16393 2.92392H5.84681L7.67456 6.21249Z" fill="white"/>
<path d="M13.1574 9.50105L11.3297 12.7896H7.67456L5.8468 9.50105L7.67456 6.21248H11.3297L13.1574 9.50105Z" fill="#187D62"/>
<path d="M13.1574 16.0782L11.9181 18.3107C11.9152 18.3136 11.9114 18.3149 11.9072 18.3145C11.8158 18.3402 11.7281 18.3621 11.6367 18.3802C11.6304 18.3878 11.6203 18.3903 11.611 18.3878C11.5196 18.4134 11.4282 18.4315 11.3334 18.4497C11.2989 18.4606 11.2635 18.4678 11.2273 18.4715C11.1287 18.4934 11.0264 18.5082 10.9278 18.5225C10.6468 18.5688 10.3637 18.6008 10.0798 18.6172C10.0289 18.621 9.97368 18.6248 9.91892 18.6248C9.77991 18.632 9.64132 18.6358 9.50231 18.6358C9.3633 18.6358 9.22429 18.632 9.08571 18.6248C9.03094 18.6248 8.97618 18.621 8.92479 18.6172C8.64046 18.6004 8.35738 18.5688 8.07684 18.5225C7.97827 18.5078 7.87591 18.493 7.77691 18.4715C7.74069 18.4678 7.7053 18.4602 7.67076 18.4497C7.57556 18.4315 7.48415 18.413 7.39274 18.3878C7.38348 18.3907 7.37337 18.3878 7.36705 18.3802C7.27564 18.3621 7.18802 18.3402 7.09661 18.3145C7.0924 18.3149 7.08861 18.3136 7.08566 18.3107L5.84637 16.0782L7.67413 12.7896H11.3292L13.157 16.0782H13.1574Z" fill="white"/>
<path d="M18.2603 6.89589L16.8129 9.50105H13.1574L11.3297 6.21249L13.1574 2.92392H15.8403C16.9789 4.01492 17.8129 5.38382 18.2603 6.89589Z" fill="white"/>
<path d="M15.8403 2.92434H13.1574L11.9181 0.691818C13.3933 1.09226 14.743 1.86029 15.8403 2.92434Z" fill="#187D62"/>
<path d="M7.08567 0.691818L5.84639 2.92434H3.16351C4.26084 1.86071 5.61049 1.09226 7.08567 0.691818Z" fill="#187D62"/>
<path d="M13.1574 2.92434L11.3297 6.21291H7.67456L5.8468 2.92434L7.08609 0.691824C8.66742 0.258121 10.3368 0.258121 11.9185 0.691824L13.1578 2.92434H13.1574Z" fill="white"/>
<path d="M18.6403 9.50106C18.6415 10.3836 18.5135 11.2611 18.2599 12.1062L16.8125 9.50106L18.2599 6.89589C18.5135 7.74098 18.6415 8.61891 18.6403 9.50106Z" fill="#187D62"/>
<path d="M18.9987 9.14314V9.10356C18.9949 9.01935 18.9911 8.93471 18.9844 8.8585C18.9768 8.72418 18.9655 8.58944 18.9478 8.43532C18.933 8.3069 18.9179 8.17552 18.8976 8.05762C18.8778 7.91993 18.8538 7.77803 18.8243 7.65213C18.7696 7.36328 18.6988 7.07737 18.6129 6.79651L18.6112 6.78978C18.5804 6.69082 18.5501 6.59187 18.5198 6.50429C18.4579 6.30512 18.3863 6.1089 18.3045 5.9169C18.2734 5.84026 18.2405 5.76573 18.2072 5.68994L18.1828 5.6352C18.1402 5.53835 18.0977 5.44572 18.0556 5.36234C17.9861 5.21202 17.9094 5.06549 17.8294 4.92106C17.7801 4.83053 17.7274 4.73832 17.6718 4.64442C17.5682 4.47304 17.4616 4.30124 17.3492 4.13997C17.2733 4.0305 17.1975 3.92354 17.1187 3.81912C16.8715 3.48437 16.6006 3.16772 16.3079 2.87171C16.235 2.79465 16.1617 2.72139 16.0964 2.6637C15.9641 2.53485 15.8276 2.40811 15.6882 2.29105C15.6777 2.28052 15.6659 2.27042 15.6541 2.26031C15.5227 2.14831 15.39 2.04093 15.243 1.93146C15.2131 1.90703 15.1815 1.8843 15.1486 1.86324C15.0147 1.76008 14.8777 1.66365 14.7396 1.57312C14.7152 1.55628 14.6899 1.5407 14.6633 1.52681C14.5589 1.45312 14.4502 1.38575 14.3381 1.32385C14.2425 1.26237 14.1431 1.20848 14.0201 1.1411C13.887 1.07121 13.7543 1.00131 13.6284 0.941517C13.5239 0.889304 13.4224 0.843407 13.2817 0.779826C13.1064 0.704033 12.927 0.635398 12.7602 0.575185C12.6595 0.534762 12.5546 0.50234 12.4586 0.472865C12.328 0.429494 12.1978 0.389071 12.0647 0.352438C12.0437 0.344438 12.0222 0.338122 11.9998 0.333911C11.9063 0.307805 11.817 0.285067 11.7231 0.26654L11.7092 0.263592C11.6203 0.238749 11.5297 0.218116 11.4388 0.202537C11.3895 0.187378 11.3389 0.17643 11.2875 0.169693C11.1932 0.149482 11.0954 0.13306 10.9897 0.119165C10.6965 0.0703204 10.4008 0.0370558 10.1038 0.0197919C10.0444 0.0160023 9.98042 0.0122126 9.94799 0.0130548C9.85026 0.0050544 9.75674 0.0050544 9.68345 0.00547547C9.57055 -0.00168274 9.45724 -0.00168274 9.34393 0.00547547C9.24578 0.00547547 9.15142 0.00547547 9.08444 0.0130548C9.02126 0.0130548 8.95723 0.0168444 8.90163 0.0210551C8.60002 0.0387401 8.3001 0.0720047 8.00186 0.121691C7.90792 0.135587 7.81104 0.150324 7.71668 0.170114C7.67708 0.174325 7.63791 0.182325 7.6 0.194115C7.49511 0.214327 7.39401 0.234959 7.29291 0.263171L7.28028 0.26654C7.19182 0.284646 7.10546 0.305699 7.017 0.330121C6.99678 0.334332 6.97656 0.339806 6.95761 0.347806C6.81776 0.38444 6.68127 0.426968 6.55532 0.469917C6.45001 0.501919 6.34555 0.534762 6.25624 0.570553C6.07764 0.635398 5.89819 0.703612 5.68968 0.794563C5.58268 0.842986 5.48074 0.889304 5.38344 0.938148C5.25032 1.00089 5.11763 1.07079 4.96093 1.15332C4.86194 1.20721 4.76211 1.26322 4.68755 1.30953C4.56876 1.37564 4.45292 1.44722 4.34129 1.52512C4.31644 1.5386 4.29158 1.55333 4.26842 1.56933C4.12688 1.66197 3.98998 1.75882 3.85602 1.86156C3.82064 1.88472 3.78652 1.90956 3.75366 1.93651C3.61465 2.03757 3.48196 2.14578 3.35138 2.25821C3.34 2.26789 3.32863 2.278 3.31852 2.2881C3.15929 2.42242 3.02787 2.54369 2.91329 2.65738C2.83999 2.7256 2.77302 2.79381 2.70351 2.86329C2.40991 3.16014 2.13737 3.47763 1.88883 3.81322C1.8088 3.91933 1.73255 4.02586 1.65884 4.13366C1.54468 4.29746 1.43769 4.46883 1.32985 4.64526C1.27677 4.73579 1.22412 4.82801 1.1761 4.91517C1.0948 5.06128 1.01813 5.20739 0.952841 5.34887C0.906504 5.44151 0.863959 5.53456 0.821414 5.63141L0.796982 5.68615C0.763704 5.76194 0.730847 5.83647 0.701782 5.90805C0.62301 6.09248 0.553506 6.28154 0.494532 6.47355C0.454936 6.57545 0.421237 6.67946 0.393435 6.78514L0.391329 6.79272C0.306238 7.07021 0.236313 7.35191 0.182394 7.63697C0.150801 7.77466 0.12679 7.91656 0.109519 8.04457C0.0922486 8.17257 0.0728716 8.30353 0.0551796 8.45175C0.0395937 8.58649 0.0282203 8.72123 0.020638 8.84755C0.0138981 8.93177 0.010107 9.0164 0.00631583 9.10062V9.1402C0.00252467 9.26062 -0.00126648 9.37726 -0.00126648 9.49811C-0.00126648 9.61895 0.00252467 9.73601 0.00631583 9.85644V9.89686C0.010107 9.98108 0.0138981 10.0649 0.020638 10.1411C0.0282203 10.275 0.0395937 10.4101 0.0572858 10.5643C0.0720292 10.6927 0.0871938 10.8241 0.107413 10.942C0.127212 11.0796 0.150801 11.2216 0.180288 11.3475C0.234628 11.6371 0.304974 11.9235 0.391329 12.2052V12.2119C0.422079 12.3109 0.452408 12.4098 0.482737 12.4974C0.54466 12.6966 0.61627 12.8928 0.697991 13.0848C0.728741 13.1614 0.762019 13.236 0.795297 13.3118L0.819729 13.3665C0.862695 13.4633 0.904819 13.556 0.946943 13.6393C1.01645 13.7897 1.09311 13.9358 1.17315 14.0806C1.22243 14.1712 1.27509 14.2634 1.32901 14.3547C1.45454 14.5665 1.57248 14.7489 1.68622 14.9055C1.98614 15.3422 2.32355 15.7519 2.69424 16.13C2.76712 16.207 2.84041 16.2803 2.90571 16.338C3.0384 16.4668 3.17446 16.5936 3.31431 16.7106C3.32484 16.7212 3.33621 16.7317 3.34801 16.7414C3.47943 16.8534 3.61212 16.9608 3.75914 17.0702C3.78904 17.0947 3.82064 17.1174 3.85307 17.1384C3.98703 17.2416 4.12435 17.338 4.26252 17.4286C4.28737 17.4454 4.31307 17.461 4.33918 17.4753C4.44365 17.549 4.55191 17.6164 4.66396 17.6778C4.75916 17.7393 4.85899 17.7932 4.98199 17.8606C5.11511 17.9313 5.24822 18.0008 5.37375 18.0602C5.47864 18.1128 5.58058 18.1587 5.72043 18.2223C5.89566 18.2981 6.07511 18.3667 6.24192 18.4269C6.3426 18.4673 6.44749 18.5002 6.54353 18.5292C6.67411 18.573 6.80428 18.613 6.93739 18.6497C6.95845 18.6577 6.97993 18.664 7.00226 18.6686C7.09577 18.6943 7.18508 18.717 7.27901 18.7356L7.29165 18.7389C7.38095 18.7638 7.47194 18.784 7.56377 18.7992C7.61306 18.8143 7.6636 18.8253 7.715 18.832C7.80935 18.8522 7.90708 18.8686 8.01281 18.8825C8.30557 18.9314 8.60086 18.9642 8.89699 18.9819C8.95597 18.9857 9.01536 18.9878 9.0638 18.9891C9.20997 18.9971 9.35614 19.0008 9.49979 19.0008C9.64343 19.0008 9.79213 18.9971 9.91639 18.9899C9.97958 18.9899 10.0436 18.9857 10.0992 18.9819C10.4004 18.9638 10.6999 18.9301 10.9977 18.8804C11.0916 18.8665 11.1885 18.8518 11.2829 18.832C11.3221 18.8278 11.3612 18.8198 11.3987 18.808C11.5036 18.7878 11.6047 18.7671 11.7058 18.7389L11.7185 18.7356C11.8069 18.7179 11.8933 18.6964 11.9817 18.672C12.0019 18.6682 12.0222 18.6623 12.0411 18.6543C12.181 18.6177 12.3175 18.5751 12.4434 18.5322C12.5487 18.5002 12.6532 18.4673 12.7425 18.4316C12.9211 18.3667 13.1005 18.2985 13.3082 18.208C13.4156 18.1591 13.5176 18.1132 13.6149 18.064C13.748 18.0012 13.8811 17.9313 14.0378 17.8488C14.1368 17.7949 14.2366 17.7389 14.3112 17.6926C14.43 17.6269 14.5454 17.5549 14.6566 17.4774C14.6819 17.4639 14.7063 17.4488 14.7299 17.4328C14.8714 17.3401 15.0083 17.2437 15.1427 17.1406C15.1781 17.1182 15.2118 17.0938 15.2446 17.0677C15.3837 16.9671 15.5159 16.8584 15.6465 16.746C15.6579 16.7363 15.6693 16.7262 15.6794 16.7161C15.8192 16.5978 15.9557 16.4723 16.077 16.3536C16.0817 16.3494 16.0859 16.3447 16.0901 16.3405L16.093 16.338C16.1638 16.2736 16.232 16.2066 16.2956 16.1397C16.6659 15.7624 17.0033 15.3535 17.3028 14.9177C17.4216 14.7539 17.5396 14.5712 17.6664 14.3577C17.7194 14.2672 17.7721 14.1749 17.8201 14.0878C17.9014 13.9417 17.9781 13.7956 18.0429 13.6541C18.0893 13.561 18.1318 13.4684 18.1744 13.3715L18.1988 13.3168C18.2321 13.241 18.2649 13.1665 18.2936 13.0949C18.3745 12.9046 18.4456 12.7109 18.5067 12.5134C18.5413 12.4144 18.5716 12.3155 18.6019 12.2178L18.604 12.2102C18.6891 11.9327 18.759 11.651 18.813 11.3664C18.8446 11.2287 18.8686 11.0868 18.8858 10.9588C18.9035 10.8308 18.9225 10.6994 18.9402 10.5516C18.9558 10.4169 18.9671 10.2817 18.9747 10.1558C18.9815 10.0716 18.9853 9.98781 18.9895 9.9036V9.86318C18.9933 9.74275 18.9966 9.62611 18.9966 9.50527C18.9966 9.38442 19.0013 9.26441 18.9975 9.14441L18.9987 9.14314ZM17.2308 9.50105L18.1247 7.8934C18.1428 7.98393 18.1613 8.07615 18.1744 8.17089C18.1933 8.28542 18.2068 8.40374 18.2224 8.53849C18.2363 8.65933 18.2468 8.7806 18.254 8.90987C18.2607 8.98524 18.2637 9.06019 18.2679 9.16546C18.2717 9.27873 18.2746 9.38821 18.2746 9.5019C18.2746 9.61559 18.2713 9.72506 18.267 9.86739C18.2637 9.94276 18.2603 10.0177 18.2536 10.1011C18.2468 10.2219 18.2363 10.3432 18.2199 10.4838C18.2064 10.5988 18.1933 10.7167 18.1723 10.8417C18.1596 10.9272 18.1419 11.0182 18.1242 11.1091L17.2308 9.50021V9.50105ZM16.5311 4.25409C16.6044 4.35219 16.6752 4.45073 16.7468 4.55473C16.8521 4.70505 16.9498 4.86253 17.0417 5.01496C17.0909 5.10002 17.1402 5.18465 17.1878 5.27055C17.2607 5.40193 17.3294 5.53288 17.3968 5.67731C17.438 5.75984 17.4755 5.84237 17.5134 5.92826L17.5383 5.98427C17.5682 6.05206 17.5985 6.11859 17.6284 6.1927C17.7047 6.37544 17.7675 6.54766 17.8243 6.72956C17.8386 6.77167 17.8513 6.8142 17.8648 6.85631L16.5977 9.13599H13.3731L12.4594 7.4917L11.7484 6.21291L12.459 4.93411L13.3727 3.28983H15.6912C15.7206 3.31931 15.7501 3.34541 15.7813 3.37868C16.0517 3.65237 16.3024 3.94502 16.5311 4.25451V4.25409ZM11.1144 12.4241H7.88981L6.97614 10.7798L6.26551 9.50105L6.97614 8.22226L7.88981 6.57798H11.1144L12.0281 8.22226L12.7395 9.50105L12.0289 10.7798L11.1148 12.4241H11.1144ZM13.0112 1.4628C13.1094 1.50744 13.2029 1.54912 13.3061 1.60091C13.4304 1.65944 13.5534 1.72429 13.6949 1.79882C13.7779 1.84387 13.8617 1.88809 13.9632 1.95209C14.066 2.00893 14.1659 2.07167 14.2619 2.13947C14.2762 2.14957 14.3171 2.17399 14.3331 2.18241C14.4641 2.26831 14.5909 2.35758 14.7156 2.45401C14.7307 2.46537 14.7682 2.49401 14.7847 2.50285C14.7893 2.50664 14.8158 2.52727 14.8213 2.53064C14.8335 2.53948 14.8449 2.55085 14.858 2.56012H13.3731L12.6911 1.32974C12.7947 1.36933 12.9 1.41101 13.0117 1.46238L13.0112 1.4628ZM7.49174 0.966781C7.57388 0.943622 7.65518 0.928043 7.77523 0.902778C7.78703 0.898989 7.79924 0.896041 7.81188 0.894357C7.82662 0.892673 7.84137 0.890567 7.85611 0.887199C7.93952 0.868672 8.02587 0.856461 8.1375 0.840039C8.40625 0.795405 8.67753 0.765088 8.94923 0.749087C8.99261 0.74614 9.03853 0.743192 9.1152 0.741508C9.19186 0.739824 9.26684 0.735613 9.37089 0.734771C9.41385 0.732245 9.46103 0.732244 9.50231 0.732244C9.5436 0.732244 9.59077 0.732244 9.65944 0.736034C9.73526 0.736034 9.81108 0.736034 9.91892 0.743613C9.96526 0.743613 10.0116 0.746982 10.0567 0.750351C10.3376 0.767193 10.6173 0.798774 10.8954 0.845092C10.9788 0.857303 11.0651 0.869514 11.1481 0.888041C11.1628 0.89141 11.1776 0.893515 11.1923 0.895199C11.2172 0.89941 11.2412 0.904884 11.2652 0.912463C11.3503 0.928885 11.432 0.944464 11.5137 0.967623L11.5255 0.970571C11.539 0.975203 11.5529 0.978992 11.5672 0.981519C11.6039 0.988677 11.6405 0.999625 11.6772 1.00805L12.74 2.92476L12.4447 3.45658L11.1152 5.84784H7.89065L6.56122 3.45573L6.26593 2.92434L7.32956 1.00805C7.36621 0.999204 7.40286 0.988677 7.43951 0.981519C7.45383 0.978992 7.46731 0.975203 7.48121 0.970571L7.493 0.967202L7.49174 0.966781ZM4.23851 2.48348C4.25494 2.47464 4.27094 2.46411 4.28569 2.45274C4.40995 2.35632 4.53717 2.26705 4.69345 2.16557C4.70945 2.15757 4.72504 2.14831 4.73936 2.1382C4.84214 2.06578 4.94914 1.99925 5.05908 1.93819C5.13912 1.8864 5.22294 1.84177 5.32362 1.78745C5.44746 1.7226 5.57089 1.65734 5.70147 1.59544C5.79751 1.54702 5.89103 1.50533 6.01277 1.44933C6.10797 1.40806 6.20991 1.37101 6.30974 1.33269L5.63155 2.55885H4.14415C4.16058 2.54622 4.17532 2.53443 4.19217 2.52222L4.23809 2.48348H4.23851ZM1.18452 6.71819C1.23718 6.54808 1.29994 6.37628 1.37871 6.18807C1.40652 6.11943 1.43642 6.0529 1.46633 5.98511L1.49118 5.92911C1.52783 5.84321 1.56659 5.76068 1.6125 5.66846C1.67484 5.53414 1.74351 5.40277 1.81764 5.26971C1.86356 5.18507 1.91327 5.10044 1.9596 5.02001C2.05438 4.86295 2.15211 4.70589 2.2591 4.55305C2.32903 4.45115 2.39896 4.35262 2.47436 4.2524C2.70267 3.9446 2.95246 3.65279 3.22206 3.37994C3.2507 3.35131 3.28356 3.31973 3.31389 3.29025H5.63239L6.54606 4.93454L7.25711 6.21333L6.54648 7.49212L5.63281 9.13641H2.40654L1.13734 6.85294C1.15082 6.81125 1.16557 6.76788 1.18452 6.71904V6.71819ZM0.879545 11.1087C0.861432 11.0182 0.842897 10.926 0.829839 10.8312C0.810883 10.7163 0.797825 10.5984 0.781817 10.4636C0.767917 10.3428 0.757386 10.2215 0.750224 10.0922C0.743906 10.019 0.740536 9.94192 0.736324 9.83665C0.732532 9.72464 0.729584 9.61516 0.729584 9.50148C0.729584 9.38779 0.732954 9.27831 0.737166 9.13599C0.740536 9.06019 0.743906 8.98482 0.750646 8.90145C0.757386 8.7806 0.768338 8.65933 0.784345 8.51827C0.797825 8.40332 0.811304 8.28542 0.831945 8.16036C0.844582 8.07489 0.862274 7.98393 0.879966 7.89298L1.77341 9.50105L0.879545 11.1087ZM2.28691 14.4857C2.1816 14.3396 2.07544 14.1762 1.96297 13.9859C1.91369 13.9017 1.8644 13.8166 1.8168 13.7303C1.74393 13.5989 1.67527 13.468 1.60829 13.3235C1.56701 13.241 1.52952 13.1585 1.49161 13.0726L1.46675 13.0166C1.43684 12.9488 1.40694 12.8818 1.37661 12.8081C1.30036 12.6254 1.2376 12.4532 1.18073 12.2713C1.16641 12.2292 1.15377 12.1866 1.14029 12.1445L2.40738 9.86654H5.63197L6.54564 11.5108L7.25669 12.7896L6.54606 14.0684L5.63239 15.7127H3.31347C3.28398 15.6832 3.25491 15.6571 3.22416 15.6251C2.87959 15.2731 2.56619 14.8925 2.28733 14.4865V14.4857H2.28691ZM5.99297 17.5414C5.89482 17.4968 5.80131 17.4547 5.69726 17.4025C5.57341 17.3444 5.45041 17.2791 5.3093 17.2046C5.22631 17.1595 5.14249 17.1149 5.04097 17.0513C4.93819 16.994 4.83877 16.9317 4.74273 16.8639C4.72714 16.8534 4.68797 16.8294 4.66944 16.821C4.53843 16.7351 4.41164 16.6458 4.28737 16.5489C4.27305 16.538 4.23303 16.5085 4.21745 16.4993C4.21281 16.4959 4.18712 16.4757 4.1808 16.4723C4.16858 16.463 4.15721 16.4521 4.14415 16.4428H5.63028L6.31227 17.6719C6.21243 17.6319 6.10502 17.5903 5.99339 17.541L5.99297 17.5414ZM11.5125 18.0353C11.4307 18.0585 11.349 18.0741 11.2294 18.0993C11.2172 18.1031 11.2054 18.1061 11.1927 18.1078C11.178 18.1094 11.1633 18.1115 11.1485 18.1145C11.0651 18.1334 10.9788 18.1456 10.8671 18.1621C10.5984 18.2067 10.3271 18.237 10.0554 18.253C10.0124 18.256 9.9661 18.2593 9.89996 18.2598C9.62911 18.2745 9.35741 18.2745 9.08613 18.2598C9.03937 18.2598 8.99346 18.2564 8.94838 18.253C8.66742 18.2362 8.38729 18.2046 8.1097 18.1583C8.02629 18.1461 7.93994 18.1339 7.85695 18.1153C7.84221 18.112 7.82747 18.1099 7.81272 18.1082C7.78787 18.104 7.76344 18.0985 7.73943 18.0909C7.65434 18.0745 7.57262 18.0589 7.4909 18.0357L7.4791 18.0328C7.46562 18.0282 7.4513 18.0244 7.4374 18.0219C7.40075 18.0147 7.36452 18.0037 7.32788 17.9953L6.26467 16.0782L6.55996 15.5468L7.88939 13.1555H11.114L12.4434 15.5472L12.7387 16.0786L11.6751 17.9953C11.6384 18.0042 11.6022 18.0147 11.5655 18.0219C11.5512 18.0244 11.5373 18.0282 11.5238 18.0328L11.512 18.0362L11.5125 18.0353ZM14.7632 16.5195C14.7472 16.5283 14.732 16.5384 14.7173 16.5494C14.593 16.6458 14.4658 16.7355 14.312 16.8353C14.2952 16.8437 14.2787 16.8534 14.2636 16.8639C14.1608 16.9363 14.0542 17.0029 13.9439 17.0639C13.8638 17.1153 13.78 17.1599 13.6793 17.2142C13.5559 17.2795 13.4325 17.3448 13.3011 17.4067C13.2046 17.4547 13.1111 17.4968 12.9906 17.5528C12.895 17.594 12.793 17.6311 12.6936 17.6694L13.3731 16.4437H14.8605C14.844 16.4563 14.8293 16.4681 14.8125 16.4803L14.764 16.5199L14.7632 16.5195ZM17.8197 12.2839C17.767 12.454 17.7043 12.6258 17.6255 12.814C17.5977 12.8827 17.5678 12.9492 17.5375 13.017L17.5126 13.073C17.476 13.1589 17.4372 13.2414 17.3913 13.3341C17.3289 13.4684 17.2599 13.5998 17.1861 13.7324C17.1402 13.8175 17.0909 13.9021 17.0429 13.9846C16.9288 14.1771 16.8235 14.3408 16.7139 14.4937C16.4351 14.8988 16.1217 15.2786 15.7771 15.6297C15.751 15.6575 15.7236 15.6849 15.6958 15.7127H13.3722L12.4586 14.0684L11.7475 12.7896L12.4581 11.5108L13.3718 9.86654H16.5964L17.8626 12.145C17.8487 12.1909 17.8357 12.2338 17.8188 12.2839H17.8197Z" fill="#187D62"/>
</g>
<defs>
<clipPath id="clip0_0_1500">
<rect width="19" height="19" fill="white"/>
</clipPath>
</defs>
</svg>
