<svg width="26" height="24" viewBox="0 0 26 24" fill="none" xmlns="http://www.w3.org/2000/svg">
<g clip-path="url(#clip0_0_1368)">
<path fill-rule="evenodd" clip-rule="evenodd" d="M22.7511 16.3636H2.44578C2.24273 16.3636 2.09044 16.2078 2.09044 16V14.1818C2.09044 13.974 2.24273 13.8182 2.44578 13.8182H22.7511C22.9542 13.8182 23.1065 13.974 23.1065 14.1818V16C23.1065 16.2078 22.9542 16.3636 22.7511 16.3636ZM2.80113 15.6364H22.3958V14.5454H2.80113V15.6364Z" fill="#358D76"/>
<path fill-rule="evenodd" clip-rule="evenodd" d="M21.9897 24H18.487C18.3855 24 18.284 23.948 18.2332 23.8441L17.1672 22.4935H8.13128L7.06525 23.8441C6.96372 23.948 6.86219 24 6.76067 24H3.25799C3.05494 24 2.90265 23.8441 2.90265 23.6364V16C2.90265 15.7922 3.05494 15.6364 3.25799 15.6364C3.46105 15.6364 3.61334 15.7922 3.61334 16V23.2727H6.60838L7.67441 21.9221C7.72517 21.8182 7.8267 21.7662 7.92823 21.7662H17.3195C17.421 21.7662 17.5225 21.8182 17.624 21.9221L18.6901 23.2727H21.6343V16C21.6343 15.7922 21.7866 15.6364 21.9897 15.6364C22.1927 15.6364 22.345 15.7922 22.345 16V23.6364C22.345 23.8441 22.1927 24 21.9897 24Z" fill="#358D76"/>
<path fill-rule="evenodd" clip-rule="evenodd" d="M18.8424 19.4286H6.40533C6.20228 19.4286 6.04999 19.2727 6.04999 19.0649C6.04999 18.8571 6.20228 18.7013 6.40533 18.7013H18.8424C19.0454 18.7013 19.1977 18.8571 19.1977 19.0649C19.1977 19.2727 19.0454 19.4286 18.8424 19.4286Z" fill="#358D76"/>
<path fill-rule="evenodd" clip-rule="evenodd" d="M5.39004 2.07792C5.33928 2.07792 5.23775 2.02597 5.18699 1.97403C4.4763 1.4026 3.20722 1.14286 2.59806 1.76623C2.44577 1.92208 2.24271 1.87013 2.09042 1.76623C1.93813 1.61039 1.9889 1.35065 2.09042 1.24675C2.54729 0.83117 3.15645 0.623377 3.86714 0.675325C4.52707 0.779222 5.18699 1.03896 5.64386 1.45455C5.79615 1.55844 5.79615 1.81818 5.64386 1.92208C5.5931 2.02597 5.49157 2.07792 5.39004 2.07792Z" fill="#358D76"/>
<path fill-rule="evenodd" clip-rule="evenodd" d="M3.91791 8.25973C2.29348 8.25973 1.0244 7.16882 0.415235 5.24674C0.415235 5.19479 -0.447743 1.81817 0.313708 0.571414C0.516762 0.311674 0.719816 0.15583 1.0244 0.103882H1.12592C2.14119 0.207778 2.95341 1.40258 3.56257 3.6883C3.71486 4.15583 3.81638 4.62336 3.91791 5.14284C4.01944 4.62336 4.12096 4.15583 4.27325 3.6883C4.88241 1.40258 5.69463 0.207778 6.7099 0.103882H6.81142C7.06524 0.15583 7.31906 0.311674 7.47135 0.519466C7.92822 1.24674 7.92822 2.75323 7.42059 5.14284V5.24674C6.86219 7.16882 5.5931 8.25973 3.91791 8.25973ZM1.07516 0.831155C1.0244 0.831155 0.973633 0.883103 0.922869 0.986999C0.465999 1.71427 0.872106 4.15583 1.12592 5.03895C1.37974 5.87012 2.03966 7.32466 3.56257 7.4805C3.5118 6.75323 3.30875 5.24674 2.90264 3.89609C2.39501 2.07791 1.73508 0.935051 1.07516 0.831155ZM6.76066 0.831155C6.10074 0.935051 5.44081 2.07791 4.93318 3.89609C4.57783 5.24674 4.37478 6.75323 4.32402 7.4805C5.84692 7.32466 6.45608 5.92206 6.7099 5.03895L6.76066 4.987C7.36982 2.07791 7.06524 1.19479 6.91295 0.935051C6.86219 0.883103 6.81142 0.831155 6.76066 0.831155Z" fill="#358D76"/>
<path fill-rule="evenodd" clip-rule="evenodd" d="M4.12096 14.5454C3.9179 14.5454 3.76561 14.3376 3.76561 14.1298C3.81638 13.4545 3.81638 12.7272 3.81638 12L3.56256 7.89608C3.56256 7.68828 3.71485 7.53244 3.9179 7.53244C4.0702 7.53244 4.27325 7.68828 4.27325 7.84413L4.52707 11.948V12C4.52707 12.7272 4.52707 13.4545 4.4763 14.1818C4.4763 14.3896 4.32401 14.5454 4.12096 14.5454Z" fill="#358D76"/>
<path fill-rule="evenodd" clip-rule="evenodd" d="M4.12097 14.5454H4.07021C3.91792 14.4935 3.76562 14.3376 3.76562 14.1299C4.2225 10.0779 6.25303 8.67531 6.3038 8.62336C6.50685 8.51946 6.7099 8.57141 6.81143 8.72725C6.91296 8.8831 6.86219 9.14284 6.7099 9.24673C6.7099 9.24673 4.88242 10.5454 4.47631 14.2337C4.47631 14.3896 4.32402 14.5454 4.12097 14.5454Z" fill="#358D76"/>
<path fill-rule="evenodd" clip-rule="evenodd" d="M22.0912 5.1948C21.9897 5.1948 21.9389 5.14285 21.8374 5.0909C21.7359 4.93506 21.6851 4.72727 21.8374 4.57142C22.2943 4.10389 22.4973 3.42857 22.4973 2.70129C22.4973 2.12987 22.345 1.66233 22.0912 1.1948C21.8374 1.66233 21.6851 2.12987 21.6851 2.70129C21.6851 3.01298 21.7359 3.27272 21.8374 3.58441C21.8882 3.74025 21.7866 3.94805 21.5836 4.05194C21.4313 4.10389 21.2282 4 21.1267 3.7922C21.0252 3.42857 20.9744 3.11688 20.9744 2.70129C20.9744 1.81818 21.279 0.987008 21.8374 0.363631C21.8882 0.311683 21.9897 0.259735 22.0912 0.259735C22.1927 0.259735 22.2943 0.311683 22.345 0.363631C22.9034 0.987008 23.208 1.81818 23.208 2.70129C23.208 3.63636 22.9034 4.41558 22.345 5.0909C22.2943 5.14285 22.1927 5.1948 22.0912 5.1948Z" fill="#358D76"/>
<path fill-rule="evenodd" clip-rule="evenodd" d="M22.7512 5.24674C22.4973 5.24674 22.2435 5.24674 22.0405 5.19479C21.8374 5.14284 21.6851 4.93505 21.7359 4.72726C21.7866 4.57142 21.9897 4.41557 22.1928 4.46752C22.8019 4.62336 23.5126 4.51947 24.1218 4.15583C24.5786 3.84414 24.934 3.42856 25.137 3.01297C24.6294 2.96103 24.1218 3.06492 23.6649 3.37661C23.4111 3.48051 23.208 3.74025 23.005 3.94804C22.8527 4.05193 22.6496 4.05193 22.4973 3.94804C22.345 3.79219 22.345 3.5844 22.4973 3.42856C22.7004 3.22077 23.005 2.90908 23.2588 2.75323H23.3095C24.071 2.2857 24.8832 2.12986 25.6954 2.33765C25.797 2.33765 25.8985 2.3896 25.9492 2.49349C26 2.59739 26 2.70129 26 2.80518C25.7462 3.5844 25.2386 4.25973 24.4771 4.77921H24.4263C23.9187 5.0909 23.3095 5.24674 22.7512 5.24674Z" fill="#358D76"/>
<path fill-rule="evenodd" clip-rule="evenodd" d="M25.0355 7.32467C24.4263 7.32467 23.8172 7.16882 23.3095 6.85713C22.5989 6.44155 21.9897 5.71428 21.7359 4.93506C21.6851 4.72726 21.7866 4.51947 21.9897 4.46752C22.1928 4.41557 22.3958 4.51947 22.4466 4.72726C22.5989 5.35064 23.0557 5.92207 23.6141 6.23376H23.6649C24.1218 6.4935 24.6294 6.64934 25.137 6.59739C24.934 6.12986 24.5279 5.76622 24.1218 5.50648H24.071C23.8679 5.35064 23.6141 5.24674 23.3095 5.1948C23.1065 5.14285 22.9542 4.987 23.005 4.77921C23.0557 4.57142 23.208 4.41557 23.4111 4.46752C23.8172 4.51947 24.1218 4.67532 24.4771 4.88311C25.1878 5.24674 25.7462 5.97402 26 6.80519C26 6.90908 26 7.01298 25.9492 7.06493C25.8985 7.16882 25.797 7.22077 25.6954 7.27272C25.4924 7.32467 25.2386 7.32467 25.0355 7.32467Z" fill="#358D76"/>
<path fill-rule="evenodd" clip-rule="evenodd" d="M22.0912 9.40258C21.9897 9.40258 21.8882 9.35063 21.8374 9.29868C21.279 8.62336 20.9744 7.84414 20.9744 6.90907C20.9744 6.02596 21.279 5.19479 21.8374 4.57141C21.9897 4.41557 22.1927 4.41557 22.345 4.57141C22.4973 4.67531 22.4973 4.93505 22.345 5.09089C21.9389 5.55842 21.6851 6.1818 21.6851 6.90907C21.6851 7.4805 21.8374 7.99998 22.0912 8.41557C22.345 7.99998 22.4973 7.4805 22.4973 6.90907C22.4973 6.59739 22.4466 6.23375 22.3958 5.97401C22.3958 5.76622 22.4973 5.61037 22.7004 5.55842C22.9034 5.50648 23.0557 5.66232 23.1065 5.87011C23.1573 6.1818 23.208 6.54544 23.208 6.90907C23.208 7.84414 22.9034 8.67531 22.345 9.29868C22.2943 9.35063 22.1927 9.40258 22.0912 9.40258Z" fill="#358D76"/>
<path fill-rule="evenodd" clip-rule="evenodd" d="M19.1977 7.32466C18.9439 7.32466 18.6901 7.32466 18.487 7.27271C18.3855 7.22076 18.284 7.16881 18.2332 7.06492C18.1824 6.96102 18.1824 6.85712 18.2332 6.75323C18.3855 6.2857 18.8424 5.35063 19.7561 4.8831C20.5176 4.41557 21.3298 4.31167 22.1927 4.46751C22.345 4.51946 22.4973 4.72725 22.4466 4.8831C22.3958 5.09089 22.1927 5.24673 22.0405 5.19479C21.3805 5.03894 20.7206 5.14284 20.1114 5.50647H20.0607C19.6038 5.76622 19.2485 6.23375 19.0454 6.59738C19.5531 6.64933 20.0607 6.49349 20.5176 6.23375C20.7714 6.0779 20.9744 5.87011 21.2282 5.66232C21.3805 5.50647 21.5836 5.50647 21.7359 5.66232C21.8882 5.81816 21.8882 6.02596 21.7359 6.1818C21.4821 6.44154 21.1775 6.70128 20.9237 6.85712C20.3653 7.16881 19.7561 7.32466 19.1977 7.32466Z" fill="#358D76"/>
<path fill-rule="evenodd" clip-rule="evenodd" d="M22.0912 5.1948C21.9389 5.1948 21.7866 5.09091 21.7359 4.93506C21.5836 4.31169 21.1775 3.74026 20.5683 3.37662C20.0607 3.11688 19.5531 2.96104 19.0454 3.01299C19.2992 3.48052 19.6546 3.84416 20.1114 4.15584C20.3653 4.31169 20.6698 4.41558 20.8729 4.46753C21.076 4.51948 21.2282 4.67532 21.1775 4.88312C21.1775 5.09091 20.9744 5.1948 20.7714 5.1948C20.416 5.14286 20.0607 4.93506 19.7561 4.77922C19.0454 4.31169 18.487 3.63636 18.2332 2.80519C18.1824 2.7013 18.1824 2.5974 18.2332 2.54545C18.284 2.44156 18.3855 2.38961 18.487 2.33766C19.2992 2.18182 20.1622 2.28571 20.9237 2.75325C21.6851 3.22078 22.2435 3.94805 22.4466 4.72727C22.4973 4.93506 22.3958 5.14286 22.1927 5.1948H22.0912Z" fill="#358D76"/>
<path fill-rule="evenodd" clip-rule="evenodd" d="M21.4313 14.5454C21.279 14.5454 21.1267 14.4416 21.076 14.2857C19.7053 8.93506 21.076 5.92207 21.1267 5.81817C21.1775 5.61038 21.4313 5.55843 21.5836 5.66233C21.7866 5.71428 21.8374 5.92207 21.7359 6.12986C21.6344 6.33765 20.4668 9.03895 21.7866 14.0779C21.8374 14.2857 21.7359 14.4935 21.5328 14.5454H21.4313Z" fill="#358D76"/>
<path fill-rule="evenodd" clip-rule="evenodd" d="M21.4313 14.5454C21.279 14.5454 21.1267 14.3896 21.076 14.2337C20.7206 10.4935 18.8931 9.24673 18.8424 9.24673C18.6901 9.14284 18.6393 8.8831 18.7408 8.72725C18.8424 8.57141 19.0962 8.51946 19.2485 8.62336C19.35 8.67531 21.3805 10.0779 21.7866 14.1299C21.8374 14.3376 21.6851 14.4935 21.4821 14.5454H21.4313Z" fill="#358D76"/>
<path fill-rule="evenodd" clip-rule="evenodd" d="M12.5985 14.5455C12.4462 14.5455 12.2939 14.4416 12.2431 14.2857C11.5832 11.6883 12.2431 6.80521 12.2431 6.59742V6.54547C12.7 4.36365 13.6645 3.27274 14.3752 2.75326C15.1874 2.18183 15.8981 2.12988 15.9488 2.12988C16.1519 2.12988 16.3042 2.28573 16.3042 2.44157C16.3042 2.64936 16.1519 2.85716 15.9996 2.85716C15.8981 2.85716 13.7153 3.06495 12.9538 6.70131C12.903 6.96105 12.3446 11.6883 12.9538 14.0779C13.0046 14.2857 12.903 14.4935 12.7 14.5455H12.5985Z" fill="#358D76"/>
<path fill-rule="evenodd" clip-rule="evenodd" d="M12.3446 12.4156C12.2939 12.4156 12.2431 12.4156 12.1923 12.3636C12.0401 12.3117 11.9385 12.1039 12.0401 11.8961C12.9538 9.81817 14.2229 8.98701 15.1366 8.67532C15.3397 8.62337 15.5427 8.72727 15.5935 8.93506C15.6443 9.0909 15.5427 9.29869 15.3397 9.35064C14.2736 9.76623 13.3091 10.7013 12.7 12.2078C12.5985 12.3117 12.4969 12.4156 12.3446 12.4156Z" fill="#358D76"/>
<path fill-rule="evenodd" clip-rule="evenodd" d="M12.3446 10.2338C12.1924 10.2338 12.0401 10.1299 11.9893 9.92209C11.8878 9.50651 11.5832 8.57144 10.4156 7.53248C10.3141 7.37664 10.2633 7.16885 10.4156 7.013C10.5679 6.85716 10.771 6.85716 10.9233 7.013C12.1416 8.10391 12.5477 9.14287 12.7 9.76625C12.7508 9.97404 12.5985 10.1818 12.4462 10.2338H12.3446Z" fill="#358D76"/>
<path fill-rule="evenodd" clip-rule="evenodd" d="M14.1721 6.75325C13.6645 6.75325 13.1569 6.54545 12.5985 6.18182C11.4309 5.50649 10.974 4.25974 11.4309 3.01299C11.7355 2.02597 12.5477 1.14286 13.6645 0.623377C14.9336 0 16.5072 -0.155844 18.2332 0.155844C18.3855 0.155844 18.487 0.311688 18.5378 0.415584C18.5885 0.571429 18.487 0.727273 18.3855 0.831169C18.1317 0.935065 17.8271 1.81818 17.5225 2.54545C16.9133 4.20779 16.1519 6.23377 14.7305 6.64935C14.5275 6.7013 14.3752 6.75325 14.1721 6.75325ZM16.6595 0.727273C14.2229 0.727273 12.5477 1.92208 12.0908 3.22078C11.7862 4.20779 12.0908 5.03896 13.0046 5.55844C13.563 5.97403 14.0706 6.12987 14.5275 5.97403C15.5935 5.66234 16.3549 3.68831 16.8626 2.28571C17.1164 1.66234 17.3194 1.14286 17.5225 0.779221C17.2179 0.779221 16.9641 0.727273 16.6595 0.727273Z" fill="#358D76"/>
<path fill-rule="evenodd" clip-rule="evenodd" d="M14.8828 10.8572C14.4767 10.8572 14.1214 10.6494 13.8168 10.2857C13.3091 9.71429 13.2076 8.98702 13.6137 8.36364C14.1721 7.53248 15.5935 7.01299 17.421 7.84416C17.5733 7.94806 17.624 8.05196 17.624 8.2078C17.624 8.36364 17.5225 8.46754 17.421 8.51949C17.3195 8.57144 17.0656 8.93507 16.9134 9.14286C16.4057 9.92209 15.7458 10.8052 14.8828 10.8572ZM15.6443 8.15585C14.8828 8.15585 14.4259 8.46754 14.1721 8.77923C13.9691 9.09092 14.0198 9.45455 14.3244 9.76624H14.3752C14.629 10.1299 14.8321 10.1299 14.8828 10.1299C15.3397 10.1299 15.9488 9.29871 16.355 8.72728C16.4565 8.57144 16.558 8.46754 16.6595 8.3117C16.2534 8.2078 15.9488 8.15585 15.6443 8.15585Z" fill="#358D76"/>
<path fill-rule="evenodd" clip-rule="evenodd" d="M10.4664 8.987H10.4156C9.55266 8.93505 8.84197 7.94804 8.28357 7.16882C8.08052 6.90908 7.8267 6.54544 7.72518 6.44154C7.57289 6.38959 7.47136 6.2857 7.47136 6.12985C7.47136 5.97401 7.57289 5.87011 7.67441 5.81817C9.60342 4.8831 11.1771 5.45453 11.7862 6.33765C12.2431 7.01297 12.1416 7.79219 11.5832 8.36362C11.2786 8.7792 10.8725 8.987 10.4664 8.987ZM8.48663 6.23375C8.58815 6.38959 8.68968 6.54544 8.84197 6.70128C9.29884 7.37661 9.908 8.20778 10.4664 8.25972C10.6695 8.25972 10.8725 8.10388 11.0756 7.84414C11.4309 7.53245 11.4309 7.11687 11.1771 6.75323C10.771 6.12985 9.75571 5.81817 8.48663 6.23375Z" fill="#358D76"/>
</g>
<defs>
<clipPath id="clip0_0_1368">
<rect width="26" height="24" fill="white"/>
</clipPath>
</defs>
</svg>
