<svg width="17" height="20" viewBox="0 0 17 20" fill="none" xmlns="http://www.w3.org/2000/svg">
<g clip-path="url(#clip0_0_1360)">
<path fill-rule="evenodd" clip-rule="evenodd" d="M8.49999 0C6.36726 0 4.63635 1.86667 4.63635 4.16667C4.63635 6.46667 6.36726 8.33333 8.49999 8.33333C10.6327 8.33333 12.3636 6.46667 12.3636 4.16667C12.3636 1.86667 10.6327 0 8.49999 0ZM6.18181 4.16667C6.18181 2.78333 7.21726 1.66667 8.49999 1.66667C9.78272 1.66667 10.8182 2.78333 10.8182 4.16667C10.8182 5.55 9.78272 6.66667 8.49999 6.66667C7.21726 6.66667 6.18181 5.55 6.18181 4.16667Z" fill="#187D62"/>
<path fill-rule="evenodd" clip-rule="evenodd" d="M8.16 10C3.655 10 0 13.9417 0 18.8C0 19.4667 0.502273 20 1.11273 20H15.8795C16.4977 20 16.9923 19.4583 16.9923 18.8C16.9923 13.9417 13.3373 10 8.83227 10H8.14455H8.16ZM8.84 11.6667C12.3482 11.6667 15.215 14.6083 15.4391 18.3333H1.56091C1.785 14.6083 4.65182 11.6667 8.16 11.6667H8.84773H8.84Z" fill="#187D62"/>
</g>
<defs>
<clipPath id="clip0_0_1360">
<rect width="17" height="20" fill="white"/>
</clipPath>
</defs>
</svg>
