<svg width="21" height="25" viewBox="0 0 21 25" fill="none" xmlns="http://www.w3.org/2000/svg">
<path d="M17.2402 25C19.7391 25 21.5273 22.5071 20.8166 20.038C20.2435 18.0674 19.6703 16.3343 18.5699 16.1918C16.1168 15.8832 13.1594 13.3903 13.1594 13.3903H12.5633C13.7784 12.6306 14.5579 11.2061 14.9247 9.59164C14.9935 9.59164 15.0622 9.61538 15.1539 9.59164C15.4749 9.52042 15.8417 8.04843 15.8876 7.33618C15.9105 6.62393 15.4749 6.64767 15.2456 6.90883C15.2456 6.88509 15.2456 6.81386 15.2686 6.76638C16.6212 2.87274 14.7183 1.82811 13.9389 1.63818C14.0993 1.54321 14.2828 1.16334 14.214 0.925925C13.9847 1.18708 13.2511 1.35328 13.2511 1.35328C13.2511 1.35328 13.4574 0.925925 13.5262 0.522316C13.5262 0.522316 13.1365 0.902183 12.5404 0.973408C12.9989 0.807216 13.0906 -0.0237427 13.0906 -0.0237427C13.0906 -0.0237427 12.4945 0.332383 11.6234 0.284899C10.7522 0.213674 9.88101 0.759733 9.88101 0.759733C9.88101 0.759733 10.0415 0.379866 10.0186 -0.0237427C9.81223 0.403608 8.75764 0.546058 7.70306 1.06838C6.83188 1.49573 6.55677 2.54036 6.48799 2.87274C6.21288 2.82526 5.89192 2.92023 5.54804 3.37132C5.18123 3.89364 5.54804 6.36277 5.70852 6.88509C5.47926 6.62393 5.02074 6.60019 5.0666 7.31244C5.08952 8.02469 5.47926 9.49668 5.80022 9.5679C5.9607 9.61539 6.09826 9.5679 6.18996 9.49668C6.5797 11.1349 7.3821 12.6068 8.62009 13.3666H7.93232C7.93232 13.3666 4.74564 15.8594 2.26965 16.1681C1.14629 16.3105 0.641924 18.0912 0.137557 20.1092C-0.481439 22.5546 1.30677 24.9525 3.75983 24.9525H17.2631L17.2402 25Z" fill="white"/>
</svg>
