<svg width="28" height="27" viewBox="0 0 28 27" fill="none" xmlns="http://www.w3.org/2000/svg">
<path d="M3.92683 13.9503C3.92683 13.6905 3.70829 13.4791 3.43967 13.4791H2.81707L5.13675 3.9214C5.51748 2.3535 5.98187 1.6235 6.59821 1.6235H6.80764V11.7642C6.80764 11.9464 6.96073 12.0945 7.14911 12.0945H7.61691V12.182C7.61691 12.585 7.9561 12.9131 8.37268 12.9131H11.5637C11.9802 12.9131 12.3194 12.585 12.3194 12.182V12.0945H12.7872C12.9756 12.0945 13.1287 11.9464 13.1287 11.7642V1.6235H13.3381C13.9545 1.6235 14.4189 2.3535 14.7996 3.9214L17.1198 13.4791H16.6674C16.3988 13.4791 16.1802 13.6905 16.1802 13.9503V14.7023C16.1802 14.9622 16.3988 15.1736 16.6674 15.1736H19.6199C19.8885 15.1736 20.1071 14.9622 20.1071 14.7023V13.9503C20.1071 13.6905 19.8885 13.4791 19.6199 13.4791H18.8215L16.4102 3.54539C16.1973 2.6684 15.5497 0 13.3387 0H6.59821C4.3878 0 3.74016 2.6684 3.52732 3.54539L1.11545 13.4791H0.487155C0.218537 13.4791 0 13.6905 0 13.9503V14.7023C0 14.9622 0.218537 15.1736 0.487155 15.1736H3.43967C3.70829 15.1736 3.92683 14.9622 3.92683 14.7023V13.9503ZM11.6365 12.182C11.6365 12.22 11.6035 12.2525 11.5637 12.2525H8.37268C8.33342 12.2525 8.29984 12.2206 8.29984 12.182V11.3463C8.29984 11.3084 8.33285 11.2759 8.37268 11.2759H11.5637C11.6029 11.2759 11.6365 11.3078 11.6365 11.3463V12.182ZM12.4458 11.4339H12.3194V11.3463C12.3194 10.9434 11.9802 10.6152 11.5637 10.6152H8.37268C7.9561 10.6152 7.61691 10.9434 7.61691 11.3463V11.4339H7.49057V1.6235H12.4458V11.4339ZM19.4236 14.1397V14.5135H16.8626V14.1397H19.4236ZM4.19203 3.69678C4.69455 1.6257 5.45943 0.661182 6.59821 0.661182H13.3381C14.4769 0.661182 15.2418 1.6257 15.7443 3.69678L18.1192 13.4796H17.821L15.4643 3.7711C15.1467 2.46415 14.6186 0.963421 13.3381 0.963421H6.59821C5.31772 0.963421 4.78959 2.4636 4.47203 3.7711L2.11537 13.4791H1.81715L4.19203 3.69678ZM3.2439 14.5135H0.682927V14.1397H3.2439V14.5135ZM27.0166 19.7887H23.7915V17.9081H24.751C25.2933 17.9081 25.7344 17.4814 25.7344 16.9568C25.7344 16.4321 25.2933 16.0054 24.751 16.0054H21.0518C20.5094 16.0054 20.0684 16.4321 20.0684 16.9568C20.0684 17.4814 20.5094 17.9081 21.0518 17.9081H22.0113V19.7887H17.9342C17.7413 19.3444 17.7185 19.2932 17.3611 18.479C16.9098 17.4511 16.2502 17.2975 15.8968 17.2975C15.5434 17.2975 14.8844 17.4511 14.4325 18.479C14.0717 19.2998 14.0461 19.3587 13.8594 19.7887H9.78236V17.9081H10.7419C11.2842 17.9081 11.7253 17.4814 11.7253 16.9568C11.7253 16.4321 11.2842 16.0054 10.7419 16.0054H7.04268C6.50033 16.0054 6.05927 16.4321 6.05927 16.9568C6.05927 17.4814 6.50033 17.9081 7.04268 17.9081H8.0022V19.7887H4.77707C4.23472 19.7887 3.79366 20.2153 3.79366 20.74C3.79366 21.2646 4.23472 21.6913 4.77707 21.6913H13.032C12.7542 22.3288 12.3877 23.1705 11.8972 24.2942H11.0441C10.6366 24.2942 10.3048 24.6151 10.3048 25.0093V26.2849C10.3048 26.679 10.6366 27 11.0441 27H20.7507C21.1582 27 21.49 26.679 21.49 26.2849V25.0093C21.49 24.6151 21.1582 24.2942 20.7507 24.2942H19.8976C19.4082 23.1716 19.0411 22.3299 18.7628 21.6913H27.0166C27.5589 21.6913 28 21.2646 28 20.74C28 20.2153 27.5589 19.7887 27.0166 19.7887ZM4.77821 21.0306C4.6126 21.0306 4.47772 20.9002 4.47772 20.74C4.47772 20.5798 4.6126 20.4493 4.77821 20.4493H8.3448C8.53317 20.4493 8.68626 20.3012 8.68626 20.119V17.5777C8.68626 17.3955 8.53317 17.2474 8.3448 17.2474H7.04382C6.87821 17.2474 6.74333 17.117 6.74333 16.9568C6.74333 16.7966 6.87821 16.6661 7.04382 16.6661H10.743C10.9086 16.6661 11.0435 16.7966 11.0435 16.9568C11.0435 17.117 10.9086 17.2474 10.743 17.2474H9.44203C9.25366 17.2474 9.10057 17.3955 9.10057 17.5777V20.119C9.10057 20.3012 9.25366 20.4493 9.44203 20.4493H13.5732C13.5026 20.6117 13.4195 20.8022 13.3205 21.0306H4.77821ZM19.6711 24.9553H20.7507C20.7809 24.9553 20.8071 24.9807 20.8071 25.0098V26.2854C20.8071 26.3146 20.7809 26.3399 20.7507 26.3399H11.0441C11.0139 26.3399 10.9877 26.3146 10.9877 26.2854V25.0098C10.9877 24.9807 11.0139 24.9553 11.0441 24.9553H19.6711ZM19.1561 24.2947H12.6387C13.798 21.6357 14.2248 20.6546 14.4433 20.1515C14.597 19.7975 14.803 19.3262 15.062 18.7377C15.19 18.4465 15.4683 17.9587 15.8974 17.9587C16.3265 17.9587 16.6054 18.447 16.7328 18.7377C16.9867 19.3158 17.191 19.7832 17.3463 20.1399C17.5666 20.6469 17.9963 21.6351 19.1561 24.2947ZM27.0166 21.0312H18.4749C18.3759 20.8038 18.2928 20.6128 18.2216 20.4498H22.3528C22.5411 20.4498 22.6942 20.3017 22.6942 20.1195V17.5783C22.6942 17.3961 22.5411 17.248 22.3528 17.248H21.0518C20.8862 17.248 20.7513 17.1175 20.7513 16.9573C20.7513 16.7971 20.8862 16.6666 21.0518 16.6666H24.751C24.9166 16.6666 25.0515 16.7971 25.0515 16.9573C25.0515 17.1175 24.9166 17.248 24.751 17.248H23.45C23.2616 17.248 23.1085 17.3961 23.1085 17.5783V20.1195C23.1085 20.3017 23.2616 20.4498 23.45 20.4498H27.0166C27.1822 20.4498 27.3171 20.5803 27.3171 20.7405C27.3171 20.9007 27.1822 21.0312 27.0166 21.0312ZM15.8974 19.5547C15.2213 19.5547 14.6715 20.0865 14.6715 20.7405C14.6715 21.3945 15.2213 21.9264 15.8974 21.9264C16.5735 21.9264 17.1233 21.3945 17.1233 20.7405C17.1233 20.0865 16.5735 19.5547 15.8974 19.5547ZM15.8974 21.2657C15.598 21.2657 15.3545 21.0301 15.3545 20.7405C15.3545 20.4509 15.598 20.2153 15.8974 20.2153C16.1967 20.2153 16.4403 20.4509 16.4403 20.7405C16.4403 21.0301 16.1967 21.2657 15.8974 21.2657Z" fill="#187D62"/>
</svg>
