<svg width="28" height="28" viewBox="0 0 28 28" fill="none" xmlns="http://www.w3.org/2000/svg">
<g clip-path="url(#clip0_0_1464)">
<path d="M23.2148 9.57031C20.5762 9.57031 18.4297 7.42383 18.4297 4.78516C18.4297 2.14648 20.5762 0 23.2148 0C25.8535 0 28 2.14648 28 4.78516C28 7.42383 25.8535 9.57031 23.2148 9.57031ZM23.2148 0.820312C21.0284 0.820312 19.25 2.59875 19.25 4.78516C19.25 6.97156 21.0284 8.75 23.2148 8.75C25.4012 8.75 27.1797 6.97156 27.1797 4.78516C27.1797 2.59875 25.4012 0.820312 23.2148 0.820312Z" fill="#187D62"/>
<path d="M23.2154 5.19533C23.1897 5.19533 23.164 5.19314 23.1377 5.18767C21.4659 4.86665 20.0949 3.66462 19.559 2.0497C19.4879 1.83478 19.6044 1.60236 19.8193 1.53126C20.0348 1.45962 20.2666 1.57665 20.3377 1.79158C20.7801 3.12486 21.9122 4.11743 23.2925 4.38212C23.5151 4.42478 23.6605 4.6397 23.6179 4.86228C23.5801 5.05861 23.4084 5.19533 23.2154 5.19533Z" fill="#187D62"/>
<path d="M23.3084 7.70767C23.2827 7.70767 23.2569 7.70548 23.2307 7.70001C21.8192 7.42931 20.5357 6.74845 19.5191 5.73236C19.151 5.36431 18.8234 4.95689 18.5456 4.52212C18.4237 4.33126 18.4794 4.07751 18.6709 3.95556C18.8617 3.83361 19.1155 3.88939 19.2374 4.08025C19.4835 4.46525 19.7734 4.82618 20.0993 5.15212C20.9994 6.05228 22.1359 6.65439 23.3855 6.89446C23.608 6.93712 23.7535 7.15204 23.7109 7.37462C23.6731 7.57095 23.5014 7.70767 23.3084 7.70767Z" fill="#187D62"/>
<path d="M24.9501 9.19626C24.8861 9.19626 24.821 9.1815 24.7609 9.14978C24.5601 9.04478 24.4825 8.79704 24.5869 8.59634C24.8008 8.18618 24.9703 7.75032 25.0912 7.30079C25.4204 6.07142 25.3739 4.78626 24.9572 3.58368C24.8828 3.36986 24.996 3.13579 25.2104 3.06197C25.4242 2.98759 25.6583 3.10079 25.7321 3.31517C26.2035 4.67306 26.2555 6.12501 25.8836 7.51353C25.7474 8.02157 25.556 8.51376 25.3143 8.97642C25.241 9.11642 25.0983 9.19681 24.9506 9.19681L24.9501 9.19626Z" fill="#187D62"/>
<path d="M22.3754 9.44781C22.2786 9.44781 22.1818 9.4139 22.1041 9.34499C21.9346 9.19515 21.9187 8.93593 22.0686 8.76585C22.9961 7.71695 23.287 6.24312 22.8277 4.91968C22.7533 4.70585 22.8665 4.47179 23.0809 4.39796C23.2952 4.32359 23.5287 4.43679 23.6026 4.65117C24.1587 6.25406 23.8066 8.0396 22.6827 9.30999C22.6018 9.40187 22.4886 9.44835 22.3754 9.44835V9.44781Z" fill="#187D62"/>
<path d="M23.2148 5.19532C23.1197 5.19532 23.024 5.16251 22.9469 5.09524C22.7757 4.94704 22.7571 4.68782 22.9053 4.51665C24.0187 3.22931 25.7458 2.64306 27.4121 2.98595C27.6341 3.03188 27.7769 3.24845 27.7309 3.47048C27.685 3.69251 27.4684 3.83524 27.2464 3.78931C25.871 3.50602 24.4453 3.99001 23.5255 5.05313C23.4445 5.14665 23.3302 5.19477 23.2154 5.19477L23.2148 5.19532Z" fill="#187D62"/>
<path d="M20.9929 4.01953C20.8977 4.01953 20.802 3.98671 20.7249 3.91945C20.5537 3.77125 20.5352 3.51203 20.6834 3.34085C21.624 2.25367 22.855 1.48257 24.2435 1.11015C24.751 0.97398 25.2733 0.893589 25.7955 0.871714C26.0203 0.861323 26.2134 1.03742 26.2227 1.26382C26.2325 1.49023 26.0564 1.68164 25.8305 1.69093C25.3684 1.71062 24.9058 1.78171 24.4562 1.90203C23.2269 2.23125 22.137 2.91429 21.3041 3.87679C21.2231 3.97031 21.1088 4.01843 20.994 4.01843L20.9929 4.01953Z" fill="#187D62"/>
<path d="M15.8648 12.1204C15.7145 12.1204 15.5701 12.0378 15.4979 11.8945C15.0593 11.0223 14.3358 10.3031 13.4602 9.87001C13.2573 9.76938 13.1742 9.52384 13.2743 9.3204C13.3749 9.11751 13.6205 9.03384 13.8239 9.13446C14.858 9.64579 15.7128 10.4951 16.2307 11.5259C16.3324 11.7283 16.2509 11.9749 16.0486 12.0767C15.9895 12.1062 15.9266 12.1204 15.8648 12.1204Z" fill="#187D62"/>
<path d="M6.67844 5.93414C6.46406 5.93414 6.28359 5.76789 6.26937 5.55078C6.26172 5.43648 6.25789 5.32055 6.25789 5.20625C6.25789 2.3357 8.59359 0 11.4641 0C12.0755 0 12.6749 0.105 13.2453 0.312813C14.9352 0.928047 16.2072 2.40297 16.5654 4.16227C16.6108 4.3843 16.4675 4.60086 16.2455 4.64625C16.0234 4.69164 15.8069 4.54836 15.7615 4.32633C15.4596 2.84484 14.3877 1.60234 12.9642 1.08445C12.4841 0.909453 11.9793 0.820859 11.4641 0.820859C9.04586 0.820859 7.0782 2.78852 7.0782 5.2068C7.0782 5.30359 7.08148 5.40148 7.0875 5.49773C7.10226 5.72359 6.93109 5.91883 6.70523 5.93359C6.69594 5.93414 6.68719 5.93469 6.67789 5.93469L6.67844 5.93414Z" fill="#187D62"/>
<path d="M11.8913 10.3934C11.6813 10.3934 11.5019 10.2326 11.4833 10.0193C11.4636 9.79344 11.6298 9.59437 11.8557 9.57468C12.2352 9.54133 12.6082 9.4582 12.9648 9.32859C14.3938 8.80851 15.4662 7.56109 15.7648 6.07304C15.8091 5.85101 16.0256 5.70718 16.2477 5.75148C16.4697 5.79578 16.6135 6.01234 16.5692 6.23437C16.2154 8.00078 14.9417 9.48172 13.2459 10.0991C12.822 10.2534 12.3791 10.3518 11.9284 10.3917C11.9164 10.3928 11.9038 10.3934 11.8918 10.3934H11.8913Z" fill="#187D62"/>
<path d="M0.410156 24.5984C0.18375 24.5984 0 24.4147 0 24.1883V14.3445C0 13.6352 0.358203 12.9866 0.958125 12.6093C1.55914 12.2314 2.29961 12.1893 2.94 12.4966C3.03352 12.5415 3.14453 12.594 3.25719 12.6426C3.46555 12.7318 3.5618 12.973 3.47266 13.1813C3.38352 13.3897 3.14234 13.4859 2.93398 13.3968C2.80711 13.3421 2.68625 13.2852 2.58508 13.2366C2.20062 13.0523 1.75602 13.0774 1.39562 13.3038C1.03578 13.5302 0.820859 13.9196 0.820859 14.3445V24.1883C0.820859 24.4147 0.637109 24.5984 0.410703 24.5984H0.410156Z" fill="#187D62"/>
<path d="M14 13.7813C12.7734 13.7813 12.1269 13.469 11.5566 13.1934C11.4308 13.1327 11.3121 13.0752 11.1869 13.0206C10.9796 12.9298 10.885 12.6881 10.9758 12.4802C11.0666 12.2724 11.3083 12.1778 11.5161 12.2692C11.655 12.3299 11.7862 12.3933 11.9137 12.4545C12.4523 12.7149 12.9615 12.9604 14.0005 12.9604C14.1001 12.9604 14.1974 12.9582 14.2909 12.9538C14.5173 12.9434 14.7093 13.1174 14.7202 13.3438C14.7312 13.5702 14.5567 13.7621 14.3303 13.7731C14.2237 13.778 14.1132 13.7807 14.0005 13.7807L14 13.7813Z" fill="#187D62"/>
<path d="M27.5898 24.5984C27.3634 24.5984 27.1797 24.4147 27.1797 24.1883V14.3445C27.1797 13.9191 26.9648 13.5302 26.6049 13.3038C26.244 13.0769 25.7994 13.0517 25.4149 13.2366C24.8166 13.5237 24.1866 13.7818 23.0595 13.7818C22.9682 13.7818 22.8785 13.7802 22.7927 13.7769C22.5662 13.7681 22.3902 13.5773 22.3989 13.3509C22.4077 13.1244 22.598 12.9478 22.8249 12.9571C22.8998 12.9598 22.9791 12.9615 23.0601 12.9615C24.0171 12.9615 24.5126 12.7602 25.06 12.4972C25.7004 12.1898 26.4409 12.2319 27.0419 12.6098C27.6418 12.9872 28 13.6358 28 14.3451V24.1888C28 24.4152 27.8162 24.599 27.5898 24.599V24.5984Z" fill="#187D62"/>
<path d="M11.8212 18.083C11.643 18.083 11.4789 17.9659 11.4269 17.7855C11.0906 16.6119 10.2763 15.6105 9.19297 15.0385C8.99281 14.933 8.91625 14.6847 9.02179 14.4845C9.12734 14.2844 9.37562 14.2078 9.57578 14.3133C10.856 14.9893 11.818 16.1727 12.2155 17.5601C12.2779 17.7778 12.1521 18.0048 11.9344 18.0676C11.8967 18.0786 11.8584 18.0835 11.8212 18.0835V18.083Z" fill="#187D62"/>
<path d="M2.36251 18.0649C2.32477 18.0649 2.28594 18.0594 2.24766 18.0485C2.03001 17.9851 1.90532 17.7576 1.96821 17.5399C2.3718 16.1509 3.34141 14.9696 4.62876 14.2991C4.82946 14.1941 5.07719 14.2723 5.18219 14.4736C5.28665 14.6743 5.20899 14.922 5.00774 15.027C3.91837 15.5947 3.09751 16.5944 2.75626 17.7696C2.7043 17.949 2.54024 18.0655 2.36251 18.0655V18.0649Z" fill="#187D62"/>
<path d="M7.08914 15.5258C4.21859 15.5258 1.88289 13.1901 1.88289 10.3195C1.88289 7.44898 4.21805 5.11328 7.08914 5.11328C7.70055 5.11328 8.29992 5.21828 8.86976 5.42609C10.9184 6.17203 12.2948 8.13859 12.2948 10.3195C12.2948 12.5005 10.9184 14.467 8.86976 15.213C8.29937 15.4208 7.70054 15.5258 7.08859 15.5258H7.08914ZM7.08914 5.93414C4.67086 5.93414 2.7032 7.9018 2.7032 10.3201C2.7032 12.7384 4.67086 14.706 7.08914 14.706C7.60484 14.706 8.10961 14.6174 8.58922 14.4424C10.3152 13.8141 11.4745 12.1576 11.4745 10.3201C11.4745 8.48258 10.3152 6.82609 8.58922 6.19773C8.10906 6.02328 7.6043 5.93469 7.08914 5.93469V5.93414Z" fill="#187D62"/>
<path d="M27.5898 19.6766C27.3634 19.6766 27.1797 19.4928 27.1797 19.2664C27.1797 18.8409 26.9648 18.4521 26.6049 18.2257C26.2445 17.9987 25.7994 17.9736 25.4149 18.1584C24.8166 18.4455 24.1866 18.7037 23.0595 18.7037C22.9392 18.7037 22.8222 18.7009 22.7106 18.6949C22.4842 18.6829 22.3103 18.4904 22.3223 18.264C22.3338 18.0376 22.528 17.8642 22.7533 17.8757C22.8506 17.8806 22.9534 17.8834 23.0595 17.8834C24.0166 17.8834 24.512 17.6821 25.0594 17.4191C25.6998 17.1117 26.4403 17.1538 27.0413 17.5317C27.6412 17.9091 27.9994 18.5577 27.9994 19.2669C27.9994 19.4934 27.8157 19.6771 27.5893 19.6771L27.5898 19.6766Z" fill="#187D62"/>
<path d="M0.410156 19.6766C0.18375 19.6766 0 19.4928 0 19.2664C0 18.5571 0.358203 17.9085 0.958125 17.5312C1.55914 17.1533 2.29961 17.1112 2.94 17.4185C3.48742 17.6816 3.98289 17.8828 4.93992 17.8828C5.97844 17.8828 6.48758 17.6367 7.0268 17.377C7.59719 17.1013 8.24359 16.7891 9.47023 16.7891C10.6969 16.7891 11.3433 17.1013 11.9137 17.377C12.4523 17.6373 12.9615 17.8828 14 17.8828C14.0995 17.8828 14.1969 17.8806 14.2904 17.8763C14.5168 17.8653 14.7087 18.0398 14.7197 18.2662C14.7306 18.4926 14.5562 18.6845 14.3298 18.6955C14.2231 18.7004 14.1127 18.7031 14 18.7031C12.7739 18.7031 12.127 18.3909 11.5566 18.1152C11.0179 17.8549 10.5087 17.6094 9.47023 17.6094C8.43172 17.6094 7.92258 17.8555 7.38336 18.1152C6.81297 18.3909 6.16656 18.7031 4.93992 18.7031C3.81336 18.7031 3.18281 18.4455 2.58453 18.1579C2.20008 17.973 1.75547 17.9982 1.39453 18.2252C1.03469 18.4516 0.819766 18.8404 0.819766 19.2659C0.819766 19.4923 0.636016 19.676 0.409609 19.676L0.410156 19.6766Z" fill="#187D62"/>
<path d="M23.2947 23.5304C23.1164 23.5304 22.9523 23.4134 22.9009 23.2334C22.5553 22.033 21.7159 21.0208 20.5975 20.4553C20.3952 20.3531 20.3142 20.1064 20.4165 19.9041C20.5188 19.7017 20.7654 19.6208 20.9677 19.723C22.289 20.3913 23.281 21.5879 23.6895 23.0065C23.7524 23.2241 23.6266 23.4516 23.409 23.514C23.3713 23.5249 23.333 23.5298 23.2952 23.5298L23.2947 23.5304Z" fill="#187D62"/>
<path d="M13.8392 23.5113C13.8009 23.5113 13.7627 23.5058 13.7238 23.4948C13.5062 23.4314 13.3815 23.2034 13.4449 22.9863C13.8567 21.577 14.846 20.3875 16.1596 19.723C16.362 19.6208 16.6086 19.7017 16.7109 19.9041C16.8131 20.1064 16.7322 20.3531 16.5298 20.4553C15.418 21.0181 14.5802 22.0243 14.2319 23.2165C14.1794 23.3953 14.0159 23.5118 13.8381 23.5118L13.8392 23.5113Z" fill="#187D62"/>
<path d="M18.5642 20.9792C15.6937 20.9792 13.358 18.6435 13.358 15.773C13.358 12.9024 15.6931 10.5667 18.5642 10.5667C19.1756 10.5667 19.775 10.6717 20.3454 10.8795C22.394 11.6255 23.7705 13.592 23.7705 15.773C23.7705 17.9539 22.394 19.9205 20.3454 20.6664C19.7755 20.8742 19.1762 20.9792 18.5642 20.9792ZM18.5642 11.387C16.1459 11.387 14.1783 13.3547 14.1783 15.773C14.1783 18.1912 16.1459 20.1589 18.5642 20.1589C19.0799 20.1589 19.5847 20.0703 20.0643 19.8953C21.7902 19.2669 22.9496 17.6105 22.9496 15.773C22.9496 13.9355 21.7902 12.279 20.0643 11.6506C19.5841 11.4756 19.0794 11.387 18.5642 11.387Z" fill="#187D62"/>
<path d="M15.8298 16.2892C15.6034 16.2892 15.4197 16.1055 15.4197 15.8791V15.3535C15.4197 15.1271 15.6034 14.9434 15.8298 14.9434C16.0563 14.9434 16.24 15.1271 16.24 15.3535V15.8791C16.24 16.1055 16.0563 16.2892 15.8298 16.2892Z" fill="#187D62"/>
<path d="M21.2986 16.2892C21.0722 16.2892 20.8884 16.1055 20.8884 15.8791V15.3535C20.8884 15.1271 21.0722 14.9434 21.2986 14.9434C21.525 14.9434 21.7088 15.1271 21.7088 15.3535V15.8791C21.7088 16.1055 21.525 16.2892 21.2986 16.2892Z" fill="#187D62"/>
<path d="M18.5642 16.602C18.1694 16.602 17.7942 16.4309 17.5339 16.1328C17.3852 15.9622 17.4027 15.703 17.5738 15.5542C17.7445 15.4055 18.0037 15.423 18.1524 15.5941C18.2563 15.7134 18.4062 15.7817 18.5642 15.7817C18.7223 15.7817 18.8721 15.7134 18.976 15.5941C19.1248 15.4235 19.384 15.4055 19.5546 15.5542C19.7252 15.703 19.7433 15.9622 19.5945 16.1328C19.3348 16.4309 18.9591 16.602 18.5642 16.602Z" fill="#187D62"/>
<path d="M4.35477 10.8363C4.12836 10.8363 3.94461 10.6526 3.94461 10.4262V9.90063C3.94461 9.67423 4.12836 9.49048 4.35477 9.49048C4.58117 9.49048 4.76492 9.67423 4.76492 9.90063V10.4262C4.76492 10.6526 4.58117 10.8363 4.35477 10.8363Z" fill="#187D62"/>
<path d="M9.82352 10.8363C9.59711 10.8363 9.41336 10.6526 9.41336 10.4262V9.90063C9.41336 9.67423 9.59711 9.49048 9.82352 9.49048C10.0499 9.49048 10.2337 9.67423 10.2337 9.90063V10.4262C10.2337 10.6526 10.0499 10.8363 9.82352 10.8363Z" fill="#187D62"/>
<path d="M7.08914 11.1492C6.6943 11.1492 6.3186 10.978 6.05883 10.6799C5.91008 10.5093 5.92758 10.2501 6.09875 10.1013C6.26938 9.95259 6.5286 9.97009 6.67735 10.1413C6.78125 10.2605 6.9311 10.3288 7.08914 10.3288C7.24719 10.3288 7.39703 10.2605 7.50094 10.1413C7.64969 9.97064 7.90891 9.95259 8.07953 10.1013C8.25016 10.2501 8.26821 10.5093 8.11946 10.6799C7.85969 10.978 7.48399 11.1492 7.08914 11.1492Z" fill="#187D62"/>
<path d="M25.4023 28H2.59766C1.16539 28 0 26.8346 0 25.4023V24.1883C0 23.479 0.358203 22.8304 0.958125 22.453C1.55914 22.0752 2.29961 22.033 2.94 22.3404C3.48797 22.6034 3.98289 22.8047 4.93992 22.8047C5.97844 22.8047 6.48758 22.5586 7.0268 22.2988C7.42438 22.1069 7.83508 21.9084 8.43883 21.7973C8.66195 21.7569 8.87523 21.904 8.91625 22.1266C8.95726 22.3491 8.80961 22.563 8.58703 22.604C8.09211 22.6948 7.74758 22.861 7.38336 23.0371C6.81297 23.3127 6.16656 23.625 4.93992 23.625C3.81336 23.625 3.18281 23.3674 2.58453 23.0798C2.20008 22.8949 1.75547 22.9206 1.39453 23.147C1.03469 23.3734 0.819766 23.7628 0.819766 24.1877V25.4018C0.819766 26.3818 1.61711 27.1791 2.59711 27.1791H25.4018C26.3818 27.1791 27.1791 26.3818 27.1791 25.4018V24.1877C27.1791 23.7623 26.9642 23.3734 26.6044 23.147C26.244 22.9201 25.7988 22.8949 25.4144 23.0798C24.8161 23.3669 24.1861 23.625 23.059 23.625C21.8329 23.625 21.1859 23.3127 20.6155 23.0371C20.0769 22.7768 19.5677 22.5313 18.5287 22.5313C17.4896 22.5313 16.981 22.7773 16.4423 23.0371C15.872 23.3127 15.2255 23.625 13.9989 23.625C13.4493 23.625 12.9697 23.5632 12.5333 23.4358C12.1494 23.3237 11.8475 23.1782 11.5555 23.0371C11.1912 22.861 10.8467 22.6948 10.3518 22.604C10.1292 22.563 9.98156 22.3491 10.0226 22.1266C10.0636 21.904 10.2774 21.7563 10.5 21.7973C11.1038 21.9084 11.5145 22.1069 11.912 22.2988C12.186 22.4312 12.4441 22.5559 12.7624 22.6488C13.1283 22.7555 13.5209 22.8052 13.9984 22.8052C15.0369 22.8052 15.546 22.5591 16.0847 22.2994C16.6551 22.0238 17.3015 21.7115 18.5281 21.7115C19.7548 21.7115 20.4012 22.0238 20.9716 22.2994C21.5102 22.5597 22.0194 22.8052 23.0584 22.8052C24.0155 22.8052 24.5109 22.604 25.0584 22.3409C25.6987 22.0336 26.4392 22.0757 27.0402 22.4536C27.6402 22.8309 27.9984 23.4795 27.9984 24.1888V25.4029C27.9984 26.8352 26.833 28.0005 25.4007 28.0005L25.4023 28Z" fill="#187D62"/>
<path d="M8.72977 4.33069C8.50336 4.33069 8.31961 4.14694 8.31961 3.92054V3.39499C8.31961 3.16858 8.50336 2.98483 8.72977 2.98483C8.95617 2.98483 9.13992 3.16858 9.13992 3.39499V3.92054C9.13992 4.14694 8.95617 4.33069 8.72977 4.33069Z" fill="#187D62"/>
<path d="M14.1985 4.33069C13.9721 4.33069 13.7884 4.14694 13.7884 3.92054V3.39499C13.7884 3.16858 13.9721 2.98483 14.1985 2.98483C14.4249 2.98483 14.6087 3.16858 14.6087 3.39499V3.92054C14.6087 4.14694 14.4249 4.33069 14.1985 4.33069Z" fill="#187D62"/>
<path d="M11.4641 4.64351C11.0693 4.64351 10.6936 4.47234 10.4338 4.17429C10.2851 4.00366 10.3026 3.74445 10.4738 3.5957C10.6444 3.44695 10.9036 3.46445 11.0523 3.63562C11.1563 3.75484 11.3061 3.8232 11.4641 3.8232C11.6222 3.8232 11.772 3.75484 11.8759 3.63562C12.0247 3.46499 12.2839 3.44695 12.4545 3.5957C12.6252 3.74445 12.6432 4.00366 12.4945 4.17429C12.2347 4.47234 11.859 4.64351 11.4641 4.64351Z" fill="#187D62"/>
</g>
<defs>
<clipPath id="clip0_0_1464">
<rect width="28" height="28" fill="white"/>
</clipPath>
</defs>
</svg>
