<svg width="13" height="12" viewBox="0 0 13 12" fill="none" xmlns="http://www.w3.org/2000/svg">
<path d="M9.99999 11.2C10.1 11.6 9.79999 11.7 9.49999 11.6L6.79999 10.2C6.49999 10 5.89999 10 5.59999 10.2L2.89999 11.5C2.59999 11.7 2.29999 11.5 2.39999 11.1L2.89999 8.10001C2.99999 7.70001 2.79999 7.20001 2.49999 7.00001L0.39999 4.80001C0.0999898 4.50001 0.199987 4.30001 0.599987 4.20001L3.59999 3.70001C3.99999 3.60001 4.39999 3.30001 4.59999 3.00001L5.99999 0.300012C6.19999 1.22041e-05 6.39999 1.22041e-05 6.59999 0.300012L7.99999 3.00001C8.19999 3.30001 8.59999 3.60001 8.99999 3.70001L12 4.20001C12.4 4.30001 12.4 4.50001 12.2 4.80001L10.1 7.00001C9.79999 7.30001 9.69999 7.80001 9.69999 8.10001L9.99999 11.2Z" fill="white" stroke="#FFD100" stroke-width="0.25" stroke-miterlimit="10"/>
</svg>
