<svg width="31" height="12" viewBox="0 0 31 12" fill="none" xmlns="http://www.w3.org/2000/svg">
<path d="M30.38 9.28706C29.3508 9.28706 28.8114 9.46217 28.3278 9.61852C27.8752 9.76236 27.4908 9.88744 26.6538 9.88744C25.8168 9.88744 25.4324 9.76236 24.9798 9.61852C24.8682 9.581 24.7504 9.54347 24.6202 9.50595C24.242 8.0613 22.7478 2.9456 20.088 1.3446C17.6948 -0.100053 12.0838 1.68231 8.9528 2.87055C8.1096 3.1895 7.6136 4.10883 7.812 5.00314C7.9236 5.50345 8.2398 5.94122 8.6738 6.19763C9.114 6.45404 9.641 6.51658 10.1308 6.36649C12.5302 5.63478 14.5762 5.24704 15.9898 5.24079L10.9864 9.84366C10.633 9.79363 10.3726 9.71233 10.0936 9.61852C9.6162 9.46217 9.0706 9.28706 8.0476 9.28706C7.0246 9.28706 6.479 9.46217 6.0016 9.61852C5.549 9.76236 5.1646 9.88744 4.3338 9.88744C3.503 9.88744 3.1124 9.76236 2.666 9.61852C2.1886 9.46217 1.643 9.28706 0.62 9.28706C0.279 9.28706 0 9.56849 0 9.91246C0 10.2564 0.279 10.5378 0.62 10.5378C1.4508 10.5378 1.8414 10.6629 2.2878 10.8068C2.7652 10.9631 3.3108 11.1382 4.3338 11.1382C5.3568 11.1382 5.9024 10.9631 6.3798 10.8068C6.8262 10.6629 7.2168 10.5378 8.0476 10.5378C8.8784 10.5378 9.269 10.6629 9.7154 10.8068C10.1928 10.9631 10.7384 11.1382 11.7614 11.1382C12.7844 11.1382 13.33 10.9631 13.8074 10.8068C14.26 10.6629 14.6444 10.5378 15.4752 10.5378C16.306 10.5378 16.6966 10.6629 17.143 10.8068C17.6204 10.9631 18.166 11.1382 19.189 11.1382C20.212 11.1382 20.7576 10.9631 21.2412 10.8068C21.6938 10.6629 22.0782 10.5378 22.9152 10.5378C23.7522 10.5378 24.1366 10.6629 24.5892 10.8068C25.0666 10.9631 25.6122 11.1382 26.6414 11.1382C27.6706 11.1382 28.21 10.9631 28.6936 10.8068C29.1462 10.6629 29.5306 10.5378 30.3676 10.5378C30.7086 10.5378 30.9876 10.2564 30.9876 9.91246C30.9876 9.56849 30.7086 9.28706 30.3676 9.28706H30.38ZM20.8816 9.61852C20.429 9.76236 20.0446 9.88744 19.2138 9.88744C18.383 9.88744 17.9924 9.76236 17.546 9.61852C17.0686 9.46217 16.523 9.28706 15.5 9.28706C14.477 9.28706 13.9314 9.46217 13.4478 9.61852C13.2742 9.67481 13.1006 9.73109 12.9146 9.77487L17.8436 5.24079C18.011 5.08444 18.0792 4.8593 18.0296 4.63416C17.98 4.41527 17.8126 4.24016 17.5956 4.17762C15.6612 3.62102 12.276 4.41527 9.7836 5.17199C9.6224 5.22202 9.455 5.20326 9.3124 5.11571C9.1698 5.02815 9.0706 4.89682 9.0334 4.72796C8.9714 4.43403 9.1202 4.14635 9.3992 4.04003C14.2228 2.20764 18.0792 1.5885 19.4618 2.42027C21.4582 3.62102 22.7726 7.53597 23.281 9.29957C23.1694 9.29957 23.0578 9.29332 22.9338 9.29332C21.9046 9.29332 21.3652 9.46843 20.8816 9.62477V9.61852Z" fill="#348D75"/>
</svg>
