<svg width="27" height="27" viewBox="0 0 27 27" fill="none" xmlns="http://www.w3.org/2000/svg">
<g clip-path="url(#clip0_0_1459)">
<path d="M24.7616 2.2386C23.1016 0.577982 20.7804 -0.200624 18.2251 0.044515C15.7597 0.281138 13.3607 1.45331 11.469 3.34508C9.57725 5.23685 8.40511 7.63593 8.16849 10.1013C8.13321 10.4669 8.11922 10.8337 8.12652 11.2005C7.32056 15.1981 6.25973 18.0893 5.12226 19.4081L0.30292 24.2269C-0.100973 24.6308 -0.100973 25.2854 0.30292 25.6893L1.31144 26.6978C1.71533 27.1011 2.36983 27.1011 2.77372 26.6978L7.59307 21.8783C8.91241 20.7402 11.8023 19.68 15.7999 18.874C16.1667 18.8807 16.5335 18.8667 16.899 18.832C19.3637 18.5954 21.7634 17.4233 23.6551 15.5315C25.5468 13.6397 26.719 11.2406 26.9556 8.77525C27.2007 6.21984 26.4215 3.89862 24.7616 2.238V2.2386ZM2.25791 26.182C2.13929 26.3006 1.94647 26.3006 1.82786 26.182L0.819343 25.1734C0.70073 25.0548 0.70073 24.862 0.819343 24.7434L5.18552 20.3771L6.62409 21.8163L2.25791 26.1826V26.182ZM26.2293 8.7059C26.0091 11.0028 24.9112 13.2437 23.1393 15.0157C21.3674 16.7876 19.1265 17.8855 16.8297 18.1057C16.4799 18.1392 16.1283 18.152 15.7768 18.1435C15.7494 18.1429 15.7226 18.1447 15.6959 18.1508C12.7543 18.7414 8.95742 19.7591 7.14234 21.3023L6.5365 20.6964C6.65146 20.7342 6.77798 20.7123 6.87409 20.638C8.07238 19.708 10.0414 18.8685 12.7275 18.1435C12.9221 18.0912 13.0371 17.8904 12.9848 17.6958C12.9568 17.5917 12.8844 17.506 12.7871 17.4604C11.3577 16.7912 10.208 15.6416 9.53893 14.2121C9.45316 14.0296 9.23601 13.9512 9.05353 14.0363C8.9562 14.0819 8.88382 14.1677 8.85584 14.2717C8.13078 16.9579 7.29136 18.9269 6.36131 20.1253C6.2871 20.2214 6.26521 20.3479 6.30292 20.4629L5.69708 19.857C7.24027 18.0425 8.25791 14.245 8.84854 11.3033C8.85401 11.2765 8.85645 11.2498 8.85584 11.2224C8.84732 10.8708 8.8601 10.5198 8.89355 10.17C9.11375 7.87316 10.2117 5.63223 11.9836 3.86029C13.7555 2.08836 15.9963 0.991008 18.2932 0.7702C20.6271 0.545135 22.7409 1.25075 24.2439 2.75382C25.747 4.2569 26.4519 6.37069 26.2275 8.70469L26.2293 8.7059ZM7.81873 19.1818C8.35949 18.1556 8.8607 16.8667 9.31752 15.3265C9.91545 16.2791 10.7214 17.0844 11.674 17.683C10.1338 18.1398 8.84489 18.641 7.81873 19.1818Z" fill="#187D62"/>
<path d="M12.722 4.59743C9.44283 7.87609 8.94709 12.7156 11.6156 15.3842C12.7391 16.5077 14.2701 17.105 15.9891 17.105C16.2664 17.105 16.5438 17.0898 16.8193 17.06C18.8437 16.8422 20.8266 15.8538 22.4027 14.2783C25.6813 10.9996 26.1776 6.16011 23.5091 3.49156C20.8406 0.823011 16.0012 1.31876 12.7226 4.59803L12.722 4.59743ZM21.3212 2.90943C21.8321 3.11382 22.306 3.40154 22.7238 3.76042L21.7622 4.72212L20.6356 3.59558L21.3212 2.91004V2.90943ZM15.7074 8.5233L16.8339 7.39676L17.9605 8.5233L16.8339 9.64985L15.7074 8.5233ZM16.3181 10.1663L15.1916 11.2928L14.0651 10.1663L15.1916 9.03974L16.3181 10.1663ZM18.4769 9.03974L19.6034 10.1663L18.4769 11.2928L17.3504 10.1663L18.4769 9.03974ZM18.9927 8.5233L20.1192 7.39676L21.2457 8.5233L20.1192 9.64985L18.9927 8.5233ZM20.1192 6.3645L18.9927 5.23795L20.1192 4.11141L21.2457 5.23795L20.1192 6.3645ZM19.6034 6.88093L18.4769 8.00748L17.3504 6.88093L18.4769 5.75439L19.6034 6.88093ZM16.8339 6.3645L15.7074 5.23795L16.8339 4.11141L17.9605 5.23795L16.8339 6.3645ZM16.3181 6.88093L15.1916 8.00748L14.0651 6.88093L15.1916 5.75439L16.3181 6.88093ZM14.6752 8.5233L13.5487 9.64985L12.4221 8.5233L13.5487 7.39676L14.6752 8.5233ZM14.6752 11.8093L13.5487 12.9358L12.4221 11.8093L13.5487 10.6827L14.6752 11.8093ZM15.191 12.3251L16.3175 13.4516L15.191 14.5782L14.0645 13.4516L15.191 12.3251ZM15.7074 11.8093L16.8339 10.6827L17.9605 11.8093L16.8339 12.9358L15.7074 11.8093ZM18.4769 12.3251L19.6034 13.4516L18.4769 14.5782L17.3504 13.4516L18.4769 12.3251ZM18.9927 11.8093L20.1192 10.6827L21.2457 11.8093L20.1192 12.9358L18.9927 11.8093ZM20.6356 10.1663L21.7622 9.03974L22.8887 10.1663L21.7622 11.2928L20.6356 10.1663ZM20.6356 6.88093L21.7622 5.75439L22.8887 6.88093L21.7622 8.00748L20.6356 6.88093ZM20.5377 2.66125L20.1198 3.07914L19.556 2.51526C19.8869 2.53655 20.2153 2.58582 20.5377 2.66125ZM18.4075 2.53777C18.4501 2.53351 18.4933 2.53108 18.5359 2.52743L19.604 3.59558L18.4775 4.72212L17.351 3.59558L18.4082 2.53838L18.4075 2.53777ZM17.1247 2.78838L16.8339 3.07914L16.6831 2.92829C16.8303 2.87719 16.9775 2.83036 17.1247 2.78838ZM15.9459 3.22331L16.3175 3.59497L15.191 4.72152L14.5134 4.04389C14.9647 3.72697 15.444 3.45202 15.9459 3.2227V3.22331ZM13.2378 5.11386C13.4599 4.89184 13.6898 4.68319 13.9264 4.48915L14.6752 5.23795L13.5487 6.3645L12.7853 5.6011C12.9301 5.43504 13.0797 5.27202 13.2384 5.11325L13.2378 5.11386ZM12.3242 6.17289L13.0316 6.88032L11.9051 8.00687L11.4653 7.56708C11.7093 7.07741 11.9964 6.61025 12.3242 6.17228V6.17289ZM11.1515 8.28547L11.3899 8.52391L10.9124 9.00142C10.9805 8.76236 11.0602 8.52391 11.1515 8.28607V8.28547ZM11.9057 9.03974L13.0322 10.1663L11.9057 11.2928L10.7792 10.1663L11.9057 9.03974ZM10.6253 11.0453L11.3893 11.8093L10.7853 12.4133C10.6807 11.965 10.6271 11.5057 10.6259 11.0453H10.6253ZM11.6995 14.3732C11.4258 14.0125 11.202 13.6171 11.0341 13.1968L11.9051 12.3257L13.0316 13.4522L11.9051 14.5788L11.6995 14.3732ZM12.6259 15.299L12.4221 15.0946L13.5487 13.9681L14.6752 15.0946L13.8035 15.9663C13.3826 15.7978 12.9866 15.5733 12.6259 15.2984V15.299ZM14.5876 16.2145L15.191 15.6111L15.9532 16.3732C15.4933 16.372 15.0353 16.3185 14.5876 16.2145ZM16.8339 16.2218L15.7074 15.0952L16.8339 13.9687L17.9605 15.0952L16.8339 16.2218ZM18.0006 16.0873L18.4769 15.6111L18.7153 15.8495C18.4793 15.9401 18.2415 16.0198 18.0006 16.0873ZM19.4331 15.535L18.9927 15.0946L20.1192 13.9681L20.8273 14.6761C20.3893 15.004 19.9221 15.2911 19.4325 15.5344L19.4331 15.535ZM21.8863 13.7625C21.7281 13.9206 21.5651 14.0709 21.399 14.2156L20.6356 13.4522L21.7622 12.3257L22.5097 13.0733C22.3151 13.3093 22.1083 13.5398 21.8863 13.7625ZM22.9562 12.4869L22.2786 11.8093L23.4051 10.6827L23.7774 11.055C23.5481 11.5562 23.2731 12.0356 22.9562 12.4869ZM24.0736 10.319L23.9209 10.1663L24.2117 9.87553C24.1697 10.0233 24.1247 10.1718 24.0736 10.319ZM24.4623 8.59326L23.4051 9.65046L22.2786 8.52391L23.4051 7.39737L24.4738 8.46613C24.4702 8.50871 24.4665 8.55129 24.4623 8.59387V8.59326ZM24.4848 7.44481L23.9209 6.88093L24.3388 6.46304C24.4142 6.78543 24.4635 7.11391 24.4848 7.44481ZM23.4051 6.3645L22.2786 5.23795L23.2403 4.27625C23.5992 4.69414 23.8863 5.16861 24.09 5.67957L23.4051 6.3645Z" fill="#187D62"/>
<path d="M19.9373 19.3405C18.3382 20.9396 18.3382 23.5322 19.9373 25.1313C21.5365 26.7305 24.1289 26.7305 25.7281 25.1313C27.3272 23.5322 27.3272 20.9396 25.7281 19.3405C24.1277 17.7437 21.5371 17.7437 19.9373 19.3405ZM20.4532 19.8563C21.0766 19.2322 21.9215 18.8788 22.8035 18.8733C22.7907 20.7091 21.3053 22.1939 19.4696 22.2073C19.4757 21.3247 19.8285 20.4804 20.4532 19.8569V19.8563ZM25.2123 24.6155C24.5432 25.2852 23.6223 25.6411 22.6764 25.5961C22.5876 23.7426 24.0188 22.1684 25.8716 22.0802C25.9264 22.0777 25.9811 22.0765 26.0359 22.0765C26.0882 22.0765 26.1399 22.0777 26.1922 22.0802C26.2378 23.0261 25.882 23.947 25.2123 24.6161V24.6155ZM23.1405 22.5437C22.3625 23.3211 21.9306 24.3801 21.944 25.4799C20.7293 25.1496 19.8023 24.1666 19.5432 22.9348C21.7251 22.8843 23.4817 21.1276 23.5316 18.9463C24.7634 19.2054 25.7457 20.1325 26.0766 21.3472C24.9769 21.3344 23.9179 21.7657 23.1405 22.5437Z" fill="#187D62"/>
</g>
<defs>
<clipPath id="clip0_0_1459">
<rect width="27" height="27" fill="white"/>
</clipPath>
</defs>
</svg>
