<svg width="20" height="20" viewBox="0 0 20 20" fill="none" xmlns="http://www.w3.org/2000/svg">
<g clip-path="url(#clip0_0_1354)">
<path d="M1.50638 0C0.67234 0 0 0.67234 0 1.50638C0 2.34043 0.67234 3.01277 1.50638 3.01277C10.0426 3.01277 16.9872 9.95745 16.9872 18.4936C16.9872 19.3277 17.6596 20 18.4936 20C19.3277 20 20 19.3277 20 18.4936C20 8.29787 11.7021 0 1.50638 0Z" fill="#187D62"/>
<path d="M1.50638 5.48087C0.67234 5.48087 0 6.15321 0 6.98725C0 7.82129 0.67234 8.49363 1.50638 8.49363C7.02128 8.49363 11.5064 12.9787 11.5064 18.4936C11.5064 19.3277 12.1787 20 13.0128 20C13.8468 20 14.5191 19.3277 14.5191 18.4936C14.5191 11.3192 8.68085 5.48087 1.50638 5.48087Z" fill="#187D62"/>
<path d="M1.50638 10.9617C0.67234 10.9617 0 11.634 0 12.4681C0 13.3021 0.67234 13.9745 1.50638 13.9745C4 13.9745 6.02553 16 6.02553 18.4936C6.02553 19.3277 6.69787 20 7.53192 20C8.36596 20 9.0383 19.3277 9.0383 18.4936C9.0383 14.3404 5.65957 10.9617 1.50638 10.9617Z" fill="#187D62"/>
<path d="M1.84681 19.583C2.63646 19.583 3.2766 18.9428 3.2766 18.1532C3.2766 17.3635 2.63646 16.7234 1.84681 16.7234C1.05716 16.7234 0.417023 17.3635 0.417023 18.1532C0.417023 18.9428 1.05716 19.583 1.84681 19.583Z" fill="#187D62"/>
</g>
<defs>
<clipPath id="clip0_0_1354">
<rect width="20" height="20" fill="white"/>
</clipPath>
</defs>
</svg>
